<svg viewBox="0 0 986 215" version="1.1" xmlns="http://www.w3.org/2000/svg" xmlns:xlink="http://www.w3.org/1999/xlink">
  <defs></defs>
  <g id="Page-1" stroke="none" stroke-width="1" fill="none" fill-rule="evenodd">
    <g id="color_logo">
      <g id="Group">
        <path d="M40,214.3 L4.6,214.3 C2.2,214.3 0.2,212.3 0.2,209.9 L0.2,5 C0.2,2.6 2.2,0.6 4.6,0.6 L40,0.6 C42.4,0.6 44.4,2.6 44.4,5 L44.4,209.9 C44.4,212.3 42.4,214.3 40,214.3 Z" id="Shape" fill="#446CA9" fill-rule="nonzero"></path>
        <g transform="translate(48.000000, 1.000000)" id="Shape">
          <polygon points="85.3 44.9 86.3 46.7 83.8 48.1 83.1 46.9 48.2 107.3 83.3 168 83.8 167.1 86.3 168.5 85.7 169.6 156.2 169.6 191.5 108.5 188.9 108.5 188.9 105.6 191.3 105.6 156.3 44.9"></polygon>
          <path d="M156.3,44.9 L191.3,105.5 L240,105.5 C239.8,102.5 238.9,99.6 237.4,96.9 L187.8,10.9 C184.1,4.5 177.3,0.6 170,0.6 L70.7,0.6 C67.5,0.6 64.5,1.4 61.7,2.7 L85.4,44.8 L156.3,44.8 L156.3,44.9 Z" fill="#46A8C6" fill-rule="nonzero"></path>
          <path d="M156.2,169.6 L85.7,169.6 L61.6,211.7 C64.4,213 67.4,213.8 70.6,213.8 L169.9,213.8 C177.3,213.8 184,209.9 187.7,203.5 L237.3,117.5 C238.9,114.7 239.8,111.6 240,108.4 L191.5,108.4 L156.2,169.6 Z" fill="#46A8C6" fill-rule="nonzero"></path>
          <path d="M48.2,107.3 L83,47 L59,4.4 C56.5,6.1 54.3,8.4 52.7,11.1 L3.1,97.1 C-0.6,103.5 -0.6,111.3 3.1,117.7 L52.7,203.7 C54.3,206.4 56.5,208.7 59,210.4 L83.2,168.1 L48.2,107.3 Z" fill="#446CA9" fill-rule="nonzero"></path>
        </g>
        <g transform="translate(359.000000, 31.000000)" id="Shape" fill-rule="nonzero" fill="#4D72A5">
          <path d="M83.7688716,146.134353 C85.8762646,148.504099 84.559144,149.294014 82.7151751,149.294014 L69.807393,149.294014 C67.7,149.294014 66.6463035,148.504099 64.5389105,146.134353 L15.0151751,99.0027326 L15.0151751,146.134353 C15.0151751,148.504099 14.2249027,149.294014 11.8540856,149.294014 L3.16108949,149.294014 C0.790272374,149.294014 -5.68434189e-14,148.504099 -5.68434189e-14,146.134353 L-5.68434189e-14,3.68627196 C-5.68434189e-14,1.3165257 0.790272374,0.52661028 3.16108949,0.52661028 L11.8540856,0.52661028 C14.4883268,0.52661028 15.0151751,1.3165257 15.0151751,3.68627196 L15.0151751,91.8934938 L61.9046693,50.0279766 C64.0120623,47.6582303 65.0657588,46.8683149 67.1731518,46.8683149 L79.8175097,46.8683149 C81.9249027,46.8683149 82.451751,48.4481457 80.8712062,50.0279766 L30.5571984,94.7898504 L83.7688716,146.134353 Z"></path>
          <path d="M113.545914,58.1904359 L111.96537,52.1344177 C111.438521,50.0279766 111.96537,48.974756 114.336187,48.1848406 C116.707004,47.6582303 133.566148,44.4985686 149.108171,44.4985686 C183.089883,44.4985686 192.309728,59.5069616 192.309728,92.9467144 L192.309728,146.134353 C192.309728,148.504099 191.519455,149.294014 189.412062,149.294014 L183.616732,149.294014 C182.036187,149.294014 181.245914,148.504099 180.719066,146.134353 L179.928794,132.442485 C174.396887,139.815029 161.225681,151.663761 139.361479,151.663761 C119.868093,151.663761 103.535798,139.815029 103.535798,118.224008 C103.535798,96.1063761 120.131518,85.5741705 144.893385,85.5741705 C155.693774,85.5741705 167.284436,88.470527 177.557977,92.6834092 C177.557977,67.1428107 170.182101,57.9271308 148.844747,57.9271308 C135.936965,57.9271308 125.4,59.7702668 117.7607,61.0867925 C114.863035,61.6134027 114.336187,60.5601822 113.545914,58.1904359 Z M118.287549,117.960703 C118.287549,130.599349 127.243969,139.551724 143.839689,139.551724 C157.801167,139.551724 170.972374,130.072739 177.294553,120.593754 L177.294553,103.742225 C167.021012,99.5293429 159.118288,96.3696812 147.527626,96.3696812 C128.297665,96.6329863 118.287549,104.268835 118.287549,117.960703 Z"></path>
          <path d="M283.835409,120.593754 C283.835409,111.641379 273.825292,107.165192 255.385603,104.532141 C235.36537,101.899089 216.135409,97.1595966 216.135409,76.0951854 C216.135409,56.8739102 231.150584,44.4985686 254.858755,44.4985686 C265.39572,44.4985686 279.357198,47.13162 293.318677,55.8206897 C295.689494,57.1372154 295.42607,58.4537411 294.372374,60.296877 L291.738132,65.0363696 C290.684436,67.1428107 289.630739,68.1960312 287.259922,66.3528953 C276.459533,59.7702668 268.556809,56.6106051 255.649027,56.6106051 C238.789883,56.6106051 230.360311,63.983149 230.360311,75.0419649 C230.360311,86.1007807 240.370428,88.2072219 258.810117,90.8402733 C278.83035,93.7366298 298.060311,100.055953 298.060311,119.803839 C298.060311,138.498504 282.781712,151.663761 256.702724,151.663761 C245.902335,151.663761 230.096887,148.767404 215.081712,138.761809 C213.237743,137.445283 213.237743,136.655368 214.554864,134.285621 L217.452529,129.282824 C218.506226,127.176383 219.559922,126.123162 221.930739,127.966298 C230.88716,134.285621 242.741245,139.288419 255.912451,139.288419 C275.932685,139.288419 283.835409,130.862655 283.835409,120.593754 Z"></path>
          <path d="M368.297276,151.663761 C341.69144,151.663761 331.681323,134.812232 331.681323,106.901887 L331.681323,59.2436565 L321.671206,59.2436565 C319.300389,59.2436565 318.510117,58.4537411 318.510117,56.0839948 L318.510117,50.0279766 C318.510117,47.3949252 319.300389,46.8683149 321.671206,46.8683149 L331.681323,46.8683149 L331.681323,26.0672088 C331.681323,23.6974626 332.208171,22.9075472 334.578988,22.9075472 L343.535409,22.9075472 C345.906226,22.9075472 346.696498,23.6974626 346.696498,26.0672088 L346.696498,46.8683149 L383.312451,46.8683149 C385.419844,46.8683149 386.210117,47.3949252 386.210117,50.0279766 L386.210117,56.0839948 C386.210117,58.4537411 385.683268,59.2436565 383.312451,59.2436565 L346.696498,59.2436565 L346.696498,105.585361 C346.696498,129.282824 353.808949,137.971893 369.877821,137.971893 C375.409728,137.971893 378.834241,137.445283 383.8393,134.812232 C386.473541,133.495706 387.000389,133.495706 387.790661,136.392062 L389.107782,142.974691 C389.63463,145.081132 389.63463,145.871047 387.790661,146.924268 C379.624514,151.663761 370.931518,151.663761 368.297276,151.663761 Z"></path>
          <path d="M502.126848,132.969096 C503.443969,134.812232 503.443969,135.865452 502.126848,137.445283 C492.64358,146.660963 476.311284,151.663761 461.296109,151.663761 C430.738911,151.663761 407.294163,127.702993 407.294163,98.2128172 C407.294163,68.7226415 430.738911,44.4985686 460.242412,44.4985686 C491.853307,44.4985686 510.029572,70.0391672 510.029572,100.055953 C510.029572,102.425699 509.502724,103.215615 506.868482,103.215615 L422.572763,103.215615 C423.889883,121.91028 441.275875,138.235198 461.559533,138.235198 C471.56965,138.235198 483.68716,135.075537 493.170428,128.229603 C495.277821,126.913077 496.068093,126.649772 497.912062,128.492908 L502.126848,132.969096 Z M494.750973,92.9467144 C493.9607,74.7786597 480.789494,57.1372154 460.242412,57.1372154 C439.431907,57.1372154 424.153307,74.7786597 423.626459,92.9467144 L494.750973,92.9467144 Z"></path>
          <path d="M552.187549,67.9327261 C556.402335,59.7702668 566.9393,44.2352635 586.696109,44.2352635 C608.296887,44.2352635 626.736576,57.4005205 626.736576,89.5237476 L626.736576,145.871047 C626.736576,148.240794 625.946304,149.030709 623.575486,149.030709 L614.619066,149.030709 C612.511673,149.030709 611.457977,148.240794 611.457977,145.871047 L611.457977,93.7366298 C611.457977,69.7758621 599.340467,57.9271308 583.008171,57.9271308 C565.358755,57.9271308 554.031518,74.7786597 554.031518,95.0531555 L554.031518,145.871047 C554.031518,148.240794 553.241245,149.030709 550.870428,149.030709 L541.914008,149.030709 C539.806615,149.030709 539.016342,148.240794 539.016342,145.871047 L539.016342,95.8430709 L539.016342,49.7646714 C539.016342,47.3949252 539.806615,46.6050098 541.914008,46.6050098 L546.919066,46.6050098 C548.499611,46.6050098 549.289883,47.3949252 550.34358,49.7646714 L552.187549,67.9327261 Z"></path>
        </g>
      </g>
    </g>
  </g>
</svg>
