<svg xmlns="http://www.w3.org/2000/svg" viewBox="0 0 317.52 56.69"><defs><style>.cls-1{fill:#017efa;}.cls-2{fill:#0bbbef;}.cls-3{fill:#1239b8;}</style></defs><g id="Layer_2" data-name="Layer 2"><g id="Layer_2-2" data-name="Layer 2"><path class="cls-1" d="M115.41,31.22V25c0-10.07,5.4-15.54,16.55-15.54,11.44,0,16.4,5.18,16.4,15.54v6.19c0,10-5.39,15.54-16.4,15.54C120.45,46.76,115.41,41.58,115.41,31.22ZM141,25c0-6-2-8.63-9-8.63S122.82,19,122.82,25v6.19c0,6,2,8.56,9.14,8.56s9-2.52,9-8.56Z"/><path class="cls-1" d="M162.82,42.73c0,2.59-.65,3.23-3.24,3.23h-.93c-2.59,0-3.24-.64-3.24-3.23V23.45c0-9.29,5.25-14,15.68-14,10.94,0,15.61,4.67,15.61,14V42.73c0,2.59-.64,3.23-3.23,3.23h-.94c-2.59,0-3.24-.64-3.24-3.23V23.45c0-4.9-1.79-7-8.2-7s-8.27,2.15-8.27,7.05Z"/><path class="cls-2" d="M224.83,31.86c0,9.86-5.11,14.75-15.25,14.75-10.72,0-15.18-5.18-15.18-14.75v-7c0-9.56,4.17-14.82,14.82-14.82,6,0,9.93,1.95,11.73,5.76V3.09c0-1.37.36-1.73,1.72-1.73h.44c1.36,0,1.72.36,1.72,1.73Zm-26.62,0c0,7.7,2.74,11.15,11.37,11.15S221,39.56,221,31.86v-7c0-7.69-2.74-11.15-11.37-11.15s-11.37,3.46-11.37,11.15Z"/><path class="cls-2" d="M263,44.89c0,1.36-.36,1.72-1.73,1.72h-.43c-1.37,0-1.73-.36-1.73-1.72v-4c-1.79,3.81-5.75,5.75-11.72,5.75-10.65,0-14.82-5.25-14.82-14.82v-7c0-9.57,4.31-14.68,15.18-14.68C257.85,10.06,263,15,263,24.74Zm-26.62-13c0,7.7,2.74,11.15,11.37,11.15s11.36-3.45,11.36-11.15v-7c0-7.69-2.73-11.15-11.36-11.15s-11.37,3.46-11.37,11.15Z"/><path class="cls-2" d="M269,12.65c0-.93.22-1.22,1.3-1.43l4.6-.51.72-8.06c.21-1.07.5-1.29,1.44-1.29h.36c1.08,0,1.29.36,1.29,1.29v8.06h12.88c1.37,0,1.66.43,1.66,1.66v.28c0,1.23-.29,1.66-1.66,1.66H278.71V34.17c0,6.4,2.59,8.77,7.41,8.77a24.39,24.39,0,0,0,6.77-.86c1.08-.36,1.65.14,1.65,1.37v.28c0,1.23-.43,1.66-1.65,2a24.58,24.58,0,0,1-6.69.86c-7.56,0-11.3-4.17-11.3-12.44V14.31h-4.6c-.94,0-1.3-.36-1.3-1.3Z"/><path class="cls-2" d="M309,11.3c0,.44-.1.54-.54.54h-1.59v5c0,.49-.12.61-.61.61h-.19c-.49,0-.61-.12-.61-.61v-5h-1.59c-.44,0-.55-.1-.55-.54v-.19c0-.44.11-.54.55-.54h4.59c.44,0,.54.1.54.54Zm8.51,5.52c0,.49-.12.61-.61.61h-.2c-.48,0-.61-.12-.61-.61V11.77l-1.36,4.89a.76.76,0,0,1-.86.67.83.83,0,0,1-.85-.67l-1.42-4.89v5.05c0,.49-.12.61-.61.61h-.19c-.49,0-.61-.12-.61-.61V11.49c0-.64.26-.92.91-.92h.56c.61,0,1,.38,1.2,1.13l1,3.92,1.1-4.14c.14-.72.51-.91,1.35-.91h.26a.81.81,0,0,1,.91.92Z"/><polygon class="cls-1" points="0 18.52 0 38.17 24.01 28.35 0 18.52"/><polygon class="cls-3" points="24.01 28.35 45.23 19.66 45.23 0 0 18.52 24.01 28.35"/><polygon class="cls-2" points="0 38.17 45.23 56.69 45.23 37.03 24.01 28.35 0 38.17"/><polygon class="cls-1" points="70.86 28.35 94.87 38.17 94.87 18.52 70.86 28.35"/><polygon class="cls-2" points="94.87 18.52 49.64 0 49.64 19.66 70.86 28.35 94.87 18.52"/><polygon class="cls-3" points="49.64 37.03 49.64 56.69 94.87 38.17 70.86 28.35 49.64 37.03"/></g></g></svg>