<svg id="Layer_1" data-name="Layer 1" xmlns="http://www.w3.org/2000/svg" viewBox="0 0 2400 2400"><defs><style>.cls-1{fill:#3d4897;}</style></defs><title>large-logo-blue-roundel copy 2</title><path class="cls-1" d="M2174.69,777.54,1862.6,762a10.47,10.47,0,0,1-9.79-10.45v-12.1a10.48,10.48,0,0,0-10-10.47L1474,713.07a10.48,10.48,0,0,1-10-10.47V670.15a10.48,10.48,0,0,0-10.48-10.48h-90.13a10.48,10.48,0,0,0-10.48,10.48v343.68a10.48,10.48,0,0,0,10.48,10.48h90.13a10.48,10.48,0,0,0,10.48-10.48V979.09a10.48,10.48,0,0,1,10-10.47l368.76-15.93a10.48,10.48,0,0,0,10-10.47V927.35a10.47,10.47,0,0,1,9.57-10.44l312.54-20.73a10.49,10.49,0,0,0,9.57-10.44V788A10.48,10.48,0,0,0,2174.69,777.54ZM1989.83,1571l1.15-1.33-368.39-523.38-2-4-.59.29-20-28.41a8.74,8.74,0,0,0-7.49-3.69L1554.3,1012a8.72,8.72,0,0,0-7.43,12.62l26.53,52.86c-19.49,6.83-123.77,42.19-230.19,55.87a7.26,7.26,0,0,0-6.31,8l5.37,46.16a7.26,7.26,0,0,0,8.11,6.37c28.47-3.57,136.48-19.08,250.88-60.91l130.82,260.67-11.14-19.46s-204.17,91.37-347.3,114.77a7.27,7.27,0,0,0-6.08,8l5.42,50.1a7.26,7.26,0,0,0,8.88,6.29c45-10.63,261.57-66.35,367.89-124.44l116.16,231.47c-131.3,90.41-283.4,152-465.53,178.51a8.71,8.71,0,0,0-7.42,9.62l27.69,235a8.74,8.74,0,0,0,9.74,7.65c40.68-5,74.63-11.53,112.26-19.48l-13.1-148.37,45.66,141q55-13.14,106-30.47L1663.06,1962l32.64,66.89q47.31-16.77,91.49-37.14l-43.68-142.94,73.37,128.81q48.45-24,93.65-52.3l-35.38-64.26,47.06,56.84q40.86-26.19,79.52-55.73l-77-131.25,102.56,111.23q20-16.12,39.62-33.11l45.62-39.68A8.7,8.7,0,0,0,2114,1758ZM967.58,1554.82a7.27,7.27,0,0,0,8.7-6.35l5.48-50.6A7.26,7.26,0,0,0,976,1490c-149.73-30.89-284.73-84.18-347.66-114.53l140.39-245.32c92.12,29.75,195.44,53.56,223.79,59.91a7.24,7.24,0,0,0,8.74-6l7.29-45.9a7.24,7.24,0,0,0-5.86-8.27c-76.39-14-156.61-37.59-202.89-54.1L992.22,739.57a8.72,8.72,0,0,0-2.7-11.56L957.37,706.4a8.71,8.71,0,0,0-12,2.23L803.61,911.06l-155-267.26a8.71,8.71,0,0,0-11.9-3.17l-75.5,43.59a8.73,8.73,0,0,0-3.2,11.91l179,310.06L655.54,1122.5l-87.27,124.63L336.92,1577.49,218,1737.11a8.73,8.73,0,0,0,1.07,11.61l45.42,42q19.89,18.42,41.42,36L409.73,1714.1l-78.07,133q37.82,28.79,79.77,54.92l47.83-57.77-35.85,65.12q45.09,27.3,94.23,51.24L590.9,1832l-43.57,142.59q44.37,20.19,91.42,37.41l32.61-66.81-18.17,72c2.21.78,4.42,1.58,6.64,2.35,37.17,12.93,67.64,24.4,97.3,34.41l47.73-147.42-14,158.17c32.67,9.71,72.18,17.65,116,23.76a8.74,8.74,0,0,0,9.9-7.61l27.68-235a8.7,8.7,0,0,0-7.31-9.6C755.34,1807.37,599,1743.36,471,1650.44L597.65,1429.1C662.21,1460.66,808.54,1521.55,967.58,1554.82Zm363.24,301a8.71,8.71,0,0,0-8.66-7.74h-34.33V646.46h-5.66c79.67-40.31,134.32-122.88,134.32-218.27,0-135.06-109.49-244.55-244.54-244.55S927.4,293.13,927.4,428.19c0,95.39,54.65,178,134.32,218.27h-5.66V1848.11H1016.3a8.72,8.72,0,0,0-8.66,7.74L968,2207.38a8.72,8.72,0,0,0,8.67,9.69h385.09a8.72,8.72,0,0,0,8.66-9.69ZM1018.75,566.53l230.78-329.62,75.61,52.93L1094.36,619.47Zm172,1554.69-18.8-154.61-21.24,154.61H1063l19.64-187.29h174l24.29,187.29Z"/></svg>