<svg width="169" height="29" viewBox="0 0 169 29" fill="none" xmlns="http://www.w3.org/2000/svg">
<path d="M119.688 28.2927H116.337C115.858 28.2927 115.619 27.939 115.619 27.5854V21.8089C115.619 21.3374 115.978 21.1016 116.337 21.1016H119.688C120.167 21.1016 120.407 21.4553 120.407 21.8089V27.5854C120.526 27.939 120.167 28.2927 119.688 28.2927Z" fill="#27B67C"/>
<path d="M126.87 28.2927H123.518C123.04 28.2927 122.8 27.939 122.8 27.5854V9.19511C122.8 8.72357 123.159 8.48779 123.518 8.48779H126.87C127.348 8.48779 127.588 8.84145 127.588 9.19511V27.5854C127.588 27.939 127.229 28.2927 126.87 28.2927Z" fill="#27B67C"/>
<path d="M20.5864 0V28.2927H18.6714V23.9309C16.9958 26.9959 13.6445 28.6463 10.1735 28.6463C4.54816 28.6463 0 24.9919 0 18.2724C0 11.7886 4.54816 8.01626 10.1735 8.01626C13.6445 8.01626 16.9957 9.43089 18.5517 12.7317V0H20.5864ZM1.91501 18.3902C1.91501 23.9309 5.62535 26.7602 10.1735 26.7602C14.961 26.7602 18.432 23.3415 18.432 18.3902C18.432 13.439 14.8414 10.0203 10.1735 10.0203C5.74504 9.90244 1.91501 12.7317 1.91501 18.3902Z" fill="#063659"/>
<path d="M44.5241 8.36993C44.5241 15.0894 44.5241 21.6911 44.5241 28.4106H42.4894V24.1667C40.5744 27.2317 37.4625 28.7642 34.2309 28.7642C28.6055 28.7642 23.9377 24.5203 23.9377 18.3903C23.9377 12.2602 28.6055 8.13416 34.2309 8.13416C37.4625 8.13416 40.8137 9.66668 42.4894 12.7317V8.36993H44.5241ZM25.8527 18.3903C25.8527 23.4594 29.563 26.7602 34.1112 26.7602C45.3619 26.7602 45.3619 10.0203 34.1112 10.0203C29.563 10.0203 25.8527 13.3211 25.8527 18.3903Z" fill="#063659"/>
<path d="M52.3038 2.35773V8.36992H59.2458V10.0203H52.3038V22.1626C52.3038 24.874 52.9023 26.7602 56.0142 26.7602C56.9717 26.7602 58.1686 26.4065 59.1261 25.935L59.8442 27.5854C58.5276 28.1748 57.3307 28.6463 56.0142 28.6463C51.7054 28.6463 50.2691 26.1707 50.2691 22.1626V10.0203H45.9603V8.36992H50.2691V2.47561L52.3038 2.35773Z" fill="#063659"/>
<path d="M81.9865 8.36993C81.9865 15.0894 81.9865 21.6911 81.9865 28.4106H79.9518V24.1667C78.0368 27.2317 74.9249 28.7642 71.6933 28.7642C66.068 28.7642 61.4001 24.5203 61.4001 18.3903C61.4001 12.2602 66.068 8.13416 71.6933 8.13416C74.9249 8.13416 78.2762 9.66668 79.9518 12.7317V8.36993H81.9865ZM63.3152 18.3903C63.3152 23.4594 67.0255 26.7602 71.5737 26.7602C82.8244 26.7602 82.8244 10.0203 71.5737 10.0203C67.0255 10.0203 63.3152 13.3211 63.3152 18.3903Z" fill="#063659"/>
<path d="M104.009 8.36993L108.438 23.3415L113.106 8.36993H118.611L111.55 28.4106H105.685L103.53 22.5163L101.735 15.7968L99.9398 22.5163L97.7854 28.4106H91.9207L84.9788 8.36993H90.6041L95.272 23.3415L99.7004 8.36993H104.009V8.36993Z" fill="#063659"/>
<path d="M146.379 8.36993V10.7277L137.043 23.4594H146.499V28.2927H129.383V26.1707L139.078 12.7317H130.101V8.36993H146.379Z" fill="#063659"/>
<path d="M164.093 8.36995H168.88V28.2927H164.093L163.853 25.3456C162.657 27.7033 159.545 28.8821 157.271 28.8821C151.286 28.8821 146.858 25.2277 146.858 18.2724C146.858 11.435 151.526 7.78052 157.39 7.78052C160.143 7.78052 162.657 9.07727 163.853 10.9634L164.093 8.36995ZM152.004 18.3903C152.004 22.1626 154.637 24.5204 157.989 24.5204C165.888 24.5204 165.888 12.3781 157.989 12.3781C154.637 12.2602 152.004 14.5 152.004 18.3903Z" fill="#063659"/>
</svg>
