<svg xmlns="http://www.w3.org/2000/svg" width="500" height="487" viewBox="0 0 500 487"><g transform="scale(.43334)"><path d="M574.566.023c-7.036.183-13.844 2.589-19.923 6.034C412.628 76.996 270.608 147.925 128.595 218.87c-10.161 5.728-17.678 15.897-20.205 27.283-1.298 5.43-2.55 10.873-3.865 16.3A2993833.539 2993833.539 0 0 0 .629 698.914c-2.106 11.624 1.148 24.092 8.696 33.185 27.023 34.048 54.036 68.108 81.056 102.16C162.59 925.265 234.786 1016.281 307 1107.281c7.963 8.958 20.005 14.07 31.976 13.667 54.682-.028 109.364 0 164.046-.01 105.197 0 210.394.01 315.591-.01 11.804-.67 23.173-6.71 30.339-16.115 73.293-91.426 146.595-182.851 219.878-274.288 25.831-32.231 51.67-64.456 77.496-96.691 6.844-9.601 9.204-22.243 6.261-33.663-3.496-14.806-6.98-29.616-10.48-44.421-32.729-138.662-65.459-277.323-98.187-415.985-1.518-1.756-2.082-4.093-3.454-5.948-4.567-7.683-11.694-13.727-19.873-17.275A2600713.116 2600713.116 0 0 0 592.203 3.216C586.686.756 580.577-.162 574.566.023Z" style="fill:#fff"/><path d="M1011.46 233.31c-1.26-5.35-6.33-11.74-11.25-14.19L569.19 4.46c-4.92-2.45-12.98-2.45-17.9 0l-429.8 214.65c-4.92 2.46-9.99 8.85-11.26 14.2L2.32 686.55c-1.27 5.35.48 13.25 3.9 17.56l297.99 375.63c3.42 4.31 10.71 7.83 16.21 7.83h480.87c5.5 0 12.81-3.51 16.26-7.8l297.91-371.58c3.44-4.29 5.22-12.18 3.96-17.53l-107.95-457.35Zm-38.68 481.24c4.78 2.73 6.26 8.74 3.29 13.38L899.84 846.9c-2.97 4.63-9.3 6.19-14.08 3.46l-69.37-39.58c-4.78-2.73-12.63-2.8-17.46-.16l-140.62 76.91c-4.83 2.64-8.77 9.3-8.77 14.8v85.27c0 5.5-4.5 10-10 10H491.35c-5.5 0-10-4.5-10-10v-77.88c0-5.5-3.95-12.15-8.79-14.78l-147.94-80.41c-4.83-2.63-12.69-2.55-17.47.18l-62.45 35.63c-4.78 2.73-11.11 1.17-14.08-3.46l-76.23-118.97c-2.97-4.63-1.49-10.65 3.29-13.38l59.87-34.15c4.78-2.73 8.69-9.46 8.69-14.96V484.07c0-5.5-3.91-12.23-8.69-14.96l-66.02-37.67c-4.78-2.73-6.26-8.74-3.29-13.38l76.23-118.97c2.97-4.63 9.3-6.19 14.08-3.46l74 42.21c4.78 2.73 12.64 2.8 17.46.16l142.57-77.83c4.83-2.64 8.78-9.29 8.78-14.79V178.8c0-5.5 4.5-10 10-10h148.19c5.5 0 10 4.5 10 10v69.32c0 5.5 3.96 12.14 8.8 14.76l140.61 76.01c4.84 2.62 12.71 2.53 17.48-.2l75.49-43.07c4.78-2.73 11.11-1.17 14.08 3.46l76.23 118.97c2.97 4.63 1.49 10.65-3.29 13.38l-70.69 40.33c-4.78 2.73-8.69 9.46-8.69 14.96v176.02c0 5.5 3.91 12.23 8.69 14.96l64.54 36.82z" style="fill:#1e2f5f" transform="translate(16.062 15.371)"/><path d="M565.242 303.009c-68.869 0-130.226 25.033-177.874 66.318l64.42 64.42c31.079-25 70.463-40.086 113.454-40.086 41.788 0 81.659 14.886 112.755 39.564l64.461-64.466c-47.604-40.947-109.499-65.75-177.216-65.75zm205.512 94.028-64.272 64.267c25.058 31.092 40.069 70.629 40.069 113.666 0 44.895-15.073 82.701-40.055 113.485l64.43 64.43c41.29-47.692 66.273-109.882 66.273-177.906 0-66.066-25.086-129.925-66.445-177.942zm-411.623.622c-41.006 47.62-65.85 109.542-65.85 177.311 0 69.137 24.81 129.835 65.75 177.22l64.34-64.339c-24.677-30.972-39.442-70.202-39.442-112.881 0-42.727 14.817-81.98 39.55-112.967l-64.348-64.344zm92.531 318.466-64.398 64.398c47.7 41.343 109.894 66.408 177.978 66.408 66.366 0 129.519-24.824 177.325-65.836l-64.344-64.344c-30.993 24.728-70.252 39.528-112.98 39.528-44.321 0-82.684-15.11-113.58-40.154z" style="fill:#e47d25" transform="translate(16.062 15.371)"/><circle cx="567.43" cy="577.47" r="93.21" style="fill:#253f98" transform="translate(13.872 12.871)"/></g></svg>
