<svg width="274" height="98" viewBox="0 0 274 98" fill="none" xmlns="http://www.w3.org/2000/svg">
<g clip-path="url(#clip0_1_6)">
<path fill-rule="evenodd" clip-rule="evenodd" d="M19.9085 51.5505C20.087 49.8084 21.5544 48.4837 23.3057 48.4837H41.0436C42.7801 48.4837 44.2401 49.7868 44.4366 51.5121L46.7565 71.8764C49.4031 76.0935 54.1357 77.1675 54.9868 77.1675C55.432 77.1675 56.0838 76.6132 56.7824 76.0191C57.5891 75.333 58.4582 74.5939 59.1437 74.5939C59.9894 74.5939 59.7283 75.7661 59.3716 76.6571C59.3089 76.8136 59.4882 76.9831 59.6394 76.9086C60.4122 76.5279 61.8947 75.8941 62.661 76.2024C63.7269 76.6314 64.0298 80.0717 62.0376 82.0637C58.8297 83.6677 51.1143 83.0084 46.6763 80.0945C46.5378 80.4907 46.3754 80.8759 46.1911 81.2484C46.0405 82.4613 45.9027 83.4275 45.8168 83.7712C45.5081 85.0059 43.8248 89.4627 43.5402 90.0319C43.2556 90.601 41.5482 97.4309 41.5482 97.7156C41.5482 97.8655 39.3713 97.9002 37.2878 97.9334C36.205 97.9507 35.1474 97.9676 34.4338 98C34.5286 97.1463 35.0029 95.4388 36.1412 95.4388C37.2795 95.4388 37.7538 95.6285 37.8487 95.7234C37.4692 94.3954 36.5396 91.6255 35.8566 91.1702C35.6536 91.0348 35.3058 90.7869 34.8858 90.4875V90.4874H34.8857C33.5396 89.5277 31.4526 88.0398 31.0188 88.0398C30.8766 88.0398 30.5742 88.0221 30.1962 87.9998C29.0624 87.9331 27.2482 87.8264 27.0348 88.0398C26.8071 88.2675 25.8016 89.4627 25.3273 90.0319L23.6199 93.4468L22.7661 97.7156H15.9363C16.6952 96.6721 18.4406 94.6991 19.3512 95.1544C20.2618 95.6097 20.1101 93.6366 19.9204 92.5931L17.9283 86.3324L17.7677 80.2301C13.4024 83.4827 3.13257 83.4553 1.17189 81.4946C-0.820106 79.5025 0.106043 76.6314 1.17192 76.2024C1.83787 75.9344 3.0447 76.3781 3.85657 76.7487C4.11211 76.8654 4.42176 76.5733 4.33212 76.3071C4.05611 75.4873 3.95088 74.5939 4.68924 74.5939C5.37468 74.5939 6.24378 75.333 7.05049 76.0191C7.74912 76.6132 8.40094 77.1675 8.84615 77.1675C9.80544 77.1675 15.6957 75.8031 17.9724 70.1116C17.9856 70.0942 17.9988 70.077 18.0119 70.0601L19.9085 51.5505Z" fill="url(#paint0_linear_1_6)"/>
<path d="M27.6037 88.0389L25.0425 90.6001C24.6356 91.5584 23.6948 95.5856 22.9301 97.1454H21.7875C21.3431 97.1454 23.7169 91.461 23.3352 90.3156C23.0507 89.4618 22.4814 89.1772 22.4814 89.1772L26.4654 88.0389H27.6037Z" fill="url(#paint1_linear_1_6)" fill-opacity="0.27"/>
<path d="M33.0107 86.0474C28.6851 85.1368 23.4299 87.2805 22.1968 89.1777C22.4814 88.893 28.4575 87.1857 31.3032 88.0395C33.5798 88.7225 35.0976 90.2212 35.5719 90.8852L38.1331 95.723C37.9433 95.5333 37.507 95.1539 37.2793 95.1539C37.0517 95.1539 35.6667 95.5333 35.0027 95.723L34.149 97.4305L41.2634 97.1459L45.8166 83.7708L46.6704 79.7868L48.3778 80.6405L55.7768 82.6325L62.6066 81.7788L64.0295 78.6485L62.3221 76.0873L58.6226 77.2256L59.7609 74.949L58.6226 74.6644L54.9231 76.6564C49.4592 75.9734 46.7652 72.0083 46.1012 70.1111L45.2475 61.5739L43.8246 47.9142L29.5958 48.4833L32.2514 49.709C32.8262 49.9743 33.0771 50.6599 32.8699 51.2582C32.0884 53.5147 31.2959 57.4292 32.157 59.5818C32.7261 61.0047 33.485 62.6173 34.4336 63.5659C34.4336 63.5659 35.5719 64.7042 33.8644 65.2734C36.1363 67.2666 41.548 69.542 41.548 69.542C41.548 69.542 41.2634 72.7672 40.4097 74.3798C42.9709 76.941 44.109 80.6405 42.1171 84.6245C41.2634 86.332 38.4176 87.1857 33.0107 86.0474Z" fill="url(#paint2_linear_1_6)" fill-opacity="0.27"/>
<path fill-rule="evenodd" clip-rule="evenodd" d="M46.694 75.5188C47.0081 75.5318 47.2521 75.797 47.239 76.1111C47.097 79.5253 46.9538 81.4834 46.6252 83.2356C46.298 84.9806 45.789 86.5074 44.9454 89.0381L44.9337 89.0733C44.725 89.6993 44.4362 90.5403 44.1188 91.4643C43.4163 93.5094 42.5742 95.9609 42.1537 97.386C42.0468 97.7482 41.7145 97.9998 41.3334 97.9998H33.791V97.4307C33.791 95.9165 34.8285 95.0292 35.9064 94.7081C36.3575 94.5738 36.8343 94.5299 37.2807 94.5776C36.1732 92.3363 34.8783 90.8485 33.5437 89.8808C31.9572 88.7306 30.278 88.2887 28.7103 88.2223C25.6575 88.0932 23.054 89.3875 22.4997 89.6631C22.4798 89.673 22.4625 89.6815 22.448 89.6887C22.1659 89.8274 21.8248 89.7113 21.6861 89.4292C21.5473 89.1471 21.6635 88.806 21.9456 88.6673C21.9609 88.6598 21.9795 88.6505 22.0013 88.6396C22.5781 88.3522 25.4054 86.9432 28.7584 87.0851C30.5119 87.1592 32.4161 87.6573 34.2118 88.9593C36.006 90.2601 37.6552 92.3368 38.9449 95.5088C39.0527 95.7739 38.9469 96.0777 38.6978 96.2186C38.4488 96.3595 38.1339 96.2935 37.9622 96.0646C37.8614 95.93 37.6506 95.7962 37.3172 95.7327C36.9911 95.6706 36.6028 95.6884 36.2314 95.7991C35.6697 95.9664 35.2084 96.3168 35.0203 96.8615H41.1224C41.5669 95.3894 42.3822 93.0159 43.0565 91.0525C43.3697 90.1405 43.6526 89.317 43.8538 88.7134C44.7107 86.1428 45.1947 84.6876 45.5064 83.0258C45.8182 81.3631 45.9596 79.4793 46.1017 76.0638C46.1148 75.7497 46.38 75.5057 46.694 75.5188Z" fill="#00105F"/>
<path fill-rule="evenodd" clip-rule="evenodd" d="M44.681 61.3385L43.2598 48.832L44.3908 48.7034L45.8154 61.2396L46.2299 68.0566C46.3015 69.2326 46.5171 70.3462 47.0791 71.269C48.3243 73.3132 50.0914 74.6023 51.6635 75.3821C52.4487 75.7716 53.1795 76.031 53.7611 76.1923C54.3572 76.3576 54.7612 76.4102 54.8995 76.4102C54.9007 76.4101 54.9473 76.4071 55.055 76.3555C55.1593 76.3055 55.2873 76.2262 55.441 76.1155C55.7076 75.9234 55.9996 75.6751 56.3235 75.3997C56.3781 75.3533 56.4337 75.3061 56.4901 75.2583C56.8682 74.9379 57.284 74.5933 57.6941 74.3293C58.0892 74.0749 58.5656 73.8366 59.0564 73.8366C59.2639 73.8366 59.4733 73.8805 59.661 73.9934C59.8516 74.108 59.982 74.2711 60.0638 74.4466C60.2157 74.7722 60.2056 75.1479 60.1637 75.4493C60.1452 75.5821 60.1177 75.7188 60.0837 75.8559C60.124 75.8394 60.1649 75.8229 60.2061 75.8066C60.5967 75.6522 61.0409 75.5041 61.4708 75.4244C61.8838 75.3479 62.3677 75.3178 62.7862 75.4862C63.2173 75.6597 63.5584 76.0399 63.798 76.46C64.0446 76.8927 64.2201 77.4291 64.286 78.01C64.4185 79.178 64.1113 80.5737 62.9762 81.7088C62.3405 82.3446 61.1986 82.7138 59.9233 82.9072C58.6127 83.1061 57.0331 83.1373 55.3949 82.9975C52.1419 82.72 48.5194 81.7551 46.2703 79.9454L46.9839 79.0585C48.9744 80.6602 52.3292 81.5935 55.4917 81.8633C57.0612 81.9973 58.5488 81.9644 59.7525 81.7818C60.9915 81.5938 61.811 81.2642 62.1713 80.9039C63.0282 80.047 63.2539 79.0111 63.1549 78.1383C63.105 77.6987 62.9736 77.3124 62.8091 77.0238C62.6374 76.7228 62.4631 76.5832 62.3612 76.5422C62.2468 76.4961 62.0246 76.4795 61.6782 76.5437C61.3486 76.6047 60.9801 76.7247 60.6246 76.8652C60.2719 77.0046 59.9483 77.1577 59.7119 77.2766C59.5941 77.3359 59.499 77.3861 59.434 77.4212C59.4015 77.4387 59.3767 77.4524 59.3603 77.4614L59.3423 77.4715L59.3383 77.4738L59.3377 77.4741L57.7168 78.3958L58.5467 76.726C58.7485 76.32 58.9739 75.7402 59.0363 75.2924C59.0588 75.1308 59.0534 75.0298 59.0445 74.975C58.8948 74.9794 58.6553 75.0643 58.3103 75.2864C57.9709 75.5049 57.6072 75.8037 57.2259 76.1268C57.1734 76.1713 57.1204 76.2164 57.067 76.2618C56.7463 76.5346 56.4136 76.8177 56.1066 77.0389C55.9256 77.1694 55.7364 77.2912 55.5471 77.3819C55.3629 77.4703 55.1395 77.5485 54.8995 77.5485C54.6081 77.5485 54.0879 77.4642 53.4569 77.2892C52.8117 77.1102 52.0128 76.826 51.1577 76.4018C49.4491 75.5543 47.4927 74.1362 46.107 71.8611C45.404 70.707 45.1698 69.377 45.0937 68.1257L44.681 61.3385ZM59.0935 74.9778C59.0935 74.9778 59.0932 74.9777 59.0927 74.9776L59.0935 74.9778Z" fill="#00105F"/>
<path d="M8.82224 81.2097C3.81369 82.1203 1.80268 78.6485 1.42325 76.941L0.569519 77.2256L1.42325 80.6405C2.08726 81.2097 3.98444 82.4049 6.26105 82.6325C8.53766 82.8602 14.7983 81.0199 17.6441 80.0714V76.0873C17.3595 76.941 15.0829 80.0714 8.82224 81.2097Z" fill="black" fill-opacity="0.27"/>
<path fill-rule="evenodd" clip-rule="evenodd" d="M19.6337 61.3385L21.0549 48.832L19.9239 48.7034L18.4993 61.2396L18.0847 68.0566C18.0132 69.2326 17.7976 70.3462 17.2356 71.269C15.9904 73.3132 14.2233 74.6023 12.6512 75.3821C11.866 75.7716 11.1352 76.031 10.5535 76.1923C9.95753 76.3576 9.55353 76.4102 9.41522 76.4102C9.41401 76.4101 9.36737 76.4071 9.25972 76.3555C9.15545 76.3055 9.02736 76.2262 8.87366 76.1155C8.60715 75.9234 8.3151 75.6751 7.99118 75.3997C7.93657 75.3533 7.88104 75.3061 7.82458 75.2583C7.44646 74.9379 7.03067 74.5933 6.62064 74.3293C6.22548 74.0749 5.74912 73.8366 5.2583 73.8366C5.05076 73.8366 4.84135 73.8805 4.65365 73.9934C4.46308 74.108 4.33271 74.2711 4.25086 74.4466C4.09903 74.7722 4.10905 75.1479 4.15099 75.4493C4.16948 75.5821 4.197 75.7188 4.23103 75.8559C4.19066 75.8394 4.14982 75.8229 4.10855 75.8066C3.71802 75.6522 3.27383 75.5041 2.84395 75.4244C2.43093 75.3479 1.94698 75.3178 1.5285 75.4862C1.0974 75.6597 0.756297 76.0399 0.516745 76.46C0.270067 76.8927 0.0946437 77.4291 0.0287441 78.01C-0.103776 79.178 0.203396 80.5737 1.3385 81.7088C1.97424 82.3446 3.11609 82.7138 4.39142 82.9072C5.702 83.1061 7.28164 83.1373 8.91979 82.9975C12.1728 82.72 15.7953 81.7551 18.0444 79.9454L17.3308 79.0585C15.3403 80.6602 11.9855 81.5935 8.82303 81.8633C7.25347 81.9973 5.76588 81.9644 4.56216 81.7818C3.32319 81.5938 2.50367 81.2642 2.14341 80.9039C1.28652 80.047 1.06077 79.0111 1.15979 78.1383C1.20967 77.6987 1.34113 77.3124 1.50563 77.0238C1.67726 76.7228 1.85163 76.5832 1.95346 76.5422C2.06793 76.4961 2.29012 76.4795 2.63652 76.5437C2.96606 76.6047 3.33458 76.7247 3.69014 76.8652C4.04275 77.0046 4.36637 77.1577 4.60284 77.2766C4.72063 77.3359 4.81571 77.3861 4.88069 77.4212C4.91315 77.4387 4.93803 77.4524 4.9544 77.4614L4.97243 77.4715L4.97643 77.4738L4.97696 77.4741L6.59785 78.3958L5.76798 76.726C5.56619 76.32 5.34075 75.7402 5.27843 75.2924C5.25594 75.1308 5.26125 75.0298 5.27024 74.975C5.41989 74.9794 5.65945 75.0643 6.0044 75.2864C6.34382 75.5049 6.70745 75.8037 7.08877 76.1268C7.1413 76.1713 7.19435 76.2164 7.24772 76.2618C7.56838 76.5346 7.90112 76.8177 8.20808 77.0389C8.38913 77.1694 8.57831 77.2912 8.76757 77.3819C8.95181 77.4703 9.17523 77.5485 9.41522 77.5485C9.70656 77.5485 10.2268 77.4642 10.8578 77.2892C11.503 77.1102 12.3019 76.826 13.157 76.4018C14.8656 75.5543 16.822 74.1362 18.2077 71.8611C18.9107 70.707 19.1449 69.377 19.221 68.1257L19.6337 61.3385ZM5.22122 74.9778C5.2212 74.9778 5.22145 74.9777 5.22198 74.9776L5.22122 74.9778Z" fill="#00105F"/>
<path d="M16.3843 49.2623H44.5249H45.2953C45.9747 49.2623 46.5255 48.8974 46.5255 48.4473V1.17979C46.5255 0.504655 45.6854 -0.0475823 44.6691 0.00325039C19.1858 1.27788 11.8647 28.8055 10.9507 45.6025C10.8406 47.6266 13.3268 49.2623 16.3843 49.2623Z" fill="#F9F9F9"/>
<path fill-rule="evenodd" clip-rule="evenodd" d="M45.3135 1.5832C45.3135 1.12919 44.7608 0.783372 44.1363 0.814997C31.9611 1.43153 24.0089 8.40055 18.9727 17.4857C13.9505 26.5457 11.9271 37.5497 11.4781 45.9045C11.3825 47.6829 13.5409 49.1337 16.2255 49.1337H44.7075C45.0422 49.1337 45.3135 48.9517 45.3135 48.7272V1.5832ZM44.045 0.00447631C45.4229 -0.0652979 46.5255 0.690476 46.5255 1.5832V48.7272C46.5255 49.4006 45.7116 49.9465 44.7075 49.9465H16.2255C12.8857 49.9465 10.1455 48.1344 10.2669 45.8752C10.7182 37.4768 12.7513 26.3764 17.8367 17.2025C22.9082 8.05371 31.1149 0.659244 44.045 0.00447631Z" fill="#808080"/>
<path fill-rule="evenodd" clip-rule="evenodd" d="M36.1568 5.63934C36.3425 5.81473 36.2772 6.0561 36.0111 6.17845C29.6969 9.08123 25.2279 14.4334 22.18 20.5674C19.1382 26.6893 17.5425 33.5275 16.9102 39.3241C16.8869 39.5374 16.6057 39.6979 16.282 39.6825C15.9584 39.6672 15.7148 39.4819 15.7381 39.2686C16.3749 33.4303 17.9829 26.5259 21.0632 20.3264C24.1376 14.1391 28.7094 8.59096 35.3388 5.5433C35.6049 5.42095 35.9711 5.46395 36.1568 5.63934Z" fill="#8A8A8A"/>
<path d="M38.1148 41.7637C35.9023 45.603 25.207 46.4501 18.4552 48.7932L18.1573 49H46.1573L45.5616 0C42.285 17.3671 41.0935 36.5949 38.1148 41.7637Z" fill="#E4E6E5"/>
<path d="M29.0268 72.9571C27.6608 72.2741 28.2679 74.1902 28.7422 75.2337L26.7501 74.3799L25.0427 73.2416C25.4213 72.4842 25.8231 71.6777 26.5741 71.2866C26.9747 71.0781 27.4246 70.965 27.8884 70.965H28.173L30.165 71.8187L31.8725 72.9571L32.7262 73.8107H32.7261C32.1569 73.8107 30.7341 73.8107 29.0268 72.9571Z" fill="url(#paint3_linear_1_6)" fill-opacity="0.27"/>
<path d="M12.0668 49.2623C14.7538 16.4262 28.8608 4.16848 35.5783 2.14415C34.2348 1.64156 31.1 3.33083 29.7005 4.23829L24.3824 8.42657C20.1279 11.2746 15.5189 23.8534 13.7462 29.7868L10.9472 47.1682L12.0668 49.2623Z" fill="white"/>
<path fill-rule="evenodd" clip-rule="evenodd" d="M45.3135 1.5832C45.3135 1.12919 44.7608 0.783372 44.1363 0.814997C31.9611 1.43153 24.0089 8.40055 18.9727 17.4857C13.9505 26.5457 11.9271 36.8225 11.4781 45.1772C11.3825 46.9556 13.5409 48.4064 16.2255 48.4064C16.2255 48.4064 44.3728 48.4064 44.7075 48.4064C45.0422 48.4064 45.3135 48.2245 45.3135 48V1.5832ZM44.045 0.00447631C45.4229 -0.0652979 46.5255 0.690476 46.5255 1.5832V48.7272C46.5255 49.4006 45.7116 49.9465 44.7075 49.9465H16.2255C12.8857 49.9465 10.1455 48.1344 10.2669 45.8752C10.7182 37.4768 12.7513 26.3764 17.8367 17.2025C22.9082 8.05371 31.1149 0.659244 44.045 0.00447631Z" fill="#8A8A8A"/>
<path d="M19.0667 85.7624C18.4976 83.4858 18.1181 78.5531 17.9284 75.8022L17.3593 76.0868C17.6438 79.312 18.213 85.8762 18.213 86.3315C18.213 86.7868 18.9719 89.5567 19.3513 90.8847L20.205 94.8688H21.0587C21.7417 93.7305 19.8256 87.9441 19.0667 85.7624Z" fill="url(#paint4_linear_1_6)"/>
<path fill-rule="evenodd" clip-rule="evenodd" d="M17.6946 74.9511C18.0077 74.9796 18.2384 75.2564 18.2099 75.5694C18.1005 76.7727 18.1526 79.0103 18.3152 81.3261C18.4776 83.6389 18.7457 85.9665 19.0524 87.3467C19.2385 88.1842 19.5137 89.0829 19.794 89.9983C19.9354 90.4602 20.0782 90.9264 20.2114 91.3911C20.4058 92.0689 20.577 92.7367 20.6773 93.348C20.7474 93.7751 20.7869 94.1975 20.767 94.5902C21.1892 94.7686 21.5658 95.0384 21.8134 95.4031C21.99 95.6632 21.9223 96.0171 21.6623 96.1937C21.4022 96.3703 21.0483 96.3026 20.8717 96.0426C20.7543 95.8697 20.5088 95.6862 20.1326 95.5689C19.7641 95.4539 19.3127 95.4173 18.8467 95.4979C18.126 95.6224 17.3716 96.0259 16.8419 96.8612H22.5692C22.6671 95.549 22.9099 93.7574 23.5983 92.0703C24.391 90.1279 25.7977 88.274 28.2872 87.496C28.5873 87.4023 28.9065 87.5695 29.0002 87.8695C29.094 88.1695 28.9268 88.4888 28.6268 88.5825C26.563 89.2275 25.3631 90.7583 24.6523 92.5003C23.9371 94.253 23.7408 96.1684 23.6715 97.4608C23.6553 97.7628 23.4056 97.9995 23.1032 97.9995H15.936C15.7504 97.9995 15.5764 97.9089 15.4699 97.7569C15.3634 97.6048 15.3377 97.4104 15.4011 97.2359C16.0433 95.4693 17.3579 94.6 18.6529 94.3762C18.9847 94.3189 19.3155 94.3037 19.6334 94.3264C19.6297 94.0969 19.6032 93.8321 19.554 93.5323C19.4645 92.9867 19.3077 92.3691 19.1172 91.7049C18.9967 91.2847 18.8614 90.8422 18.7236 90.3917C18.4355 89.45 18.1368 88.4736 17.9412 87.5936C17.6155 86.128 17.343 83.7316 17.1797 81.4058C17.0166 79.083 16.958 76.7674 17.0763 75.4664C17.1047 75.1533 17.3816 74.9226 17.6946 74.9511Z" fill="#00105F"/>
<path d="M29.75 55.9469C29.75 59.2238 27.2143 61.8802 24.0864 61.8802C20.9585 61.8802 18.4228 59.2238 18.4228 55.9469C18.4228 52.67 20.9585 50.0136 24.0864 50.0136C27.2143 50.0136 29.75 52.67 29.75 55.9469Z" fill="white"/>
<path fill-rule="evenodd" clip-rule="evenodd" d="M24.0863 50.2993C21.1278 50.2993 18.7072 52.8157 18.7072 55.9481C18.7072 59.0804 21.1278 61.5968 24.0863 61.5968C27.0447 61.5968 29.4653 59.0804 29.4653 55.9481C29.4653 52.8157 27.0447 50.2993 24.0863 50.2993ZM18.1381 55.9481C18.1381 52.5266 20.7888 49.7302 24.0863 49.7302C27.3837 49.7302 30.0345 52.5266 30.0345 55.9481C30.0345 59.3695 27.3837 62.166 24.0863 62.166C20.7888 62.166 18.1381 59.3695 18.1381 55.9481Z" fill="#00105F"/>
<path d="M45.9316 56.2166C45.9316 59.6425 43.3959 62.4196 40.2679 62.4196C37.14 62.4196 34.6043 59.6425 34.6043 56.2166C34.6043 52.7908 37.14 50.0136 40.2679 50.0136C43.3959 50.0136 45.9316 52.7908 45.9316 56.2166Z" fill="white"/>
<path fill-rule="evenodd" clip-rule="evenodd" d="M40.2678 50.2993C37.3208 50.2993 34.8887 52.9242 34.8887 56.2178C34.8887 59.5113 37.3208 62.1362 40.2678 62.1362C43.2147 62.1362 45.6468 59.5113 45.6468 56.2178C45.6468 52.9242 43.2147 50.2993 40.2678 50.2993ZM34.3196 56.2178C34.3196 52.6597 36.9589 49.7302 40.2678 49.7302C43.5767 49.7302 46.216 52.6597 46.216 56.2178C46.216 59.7758 43.5767 62.7053 40.2678 62.7053C36.9589 62.7053 34.3196 59.7758 34.3196 56.2178Z" fill="#00105F"/>
<path d="M38.3801 64.3093C34.065 67.1141 26.3337 64.9386 23.0074 63.5002L20.0408 62.4214C19.9509 62.8709 19.825 64.2014 20.0408 65.9274C20.2565 67.6535 20.5002 69.1638 20.8499 70.5123C21.4791 72.9395 24.5177 77.848 31.6377 78.0638C37.1699 78.2314 40.2381 74.5021 41.6266 71.3545C42.3224 69.7771 42.4256 68.0257 42.4256 66.3017V64.3093C41.5625 64.7408 39.369 64.4891 38.3801 64.3093Z" fill="#00105F"/>
<path fill-rule="evenodd" clip-rule="evenodd" d="M19.8265 62.0396L23.1125 63.2344L23.1202 63.2378C24.7633 63.9483 27.5019 64.8434 30.3592 65.2125C33.2273 65.583 36.1539 65.4156 38.2249 64.0695L38.3196 64.0079L38.4309 64.0281C38.915 64.1161 39.6972 64.2221 40.4613 64.253C40.8434 64.2684 41.2151 64.2648 41.5399 64.2322C41.8698 64.1992 42.1283 64.1385 42.2981 64.0535L42.71 63.8476V66.3005C42.71 68.0294 42.6083 69.8326 41.8868 71.4682C40.4739 74.6712 37.3238 78.5196 31.6289 78.347C24.3554 78.1266 21.2279 73.1037 20.5742 70.5825C20.2201 69.2165 19.9745 67.6921 19.7582 65.9616C19.5392 64.2093 19.6649 62.8477 19.7616 62.3644L19.8265 62.0396ZM20.2701 62.8065C20.2008 63.4013 20.151 64.515 20.323 65.891C20.5382 67.6126 20.7801 69.1088 21.1252 70.4397C21.7301 72.773 24.6798 77.567 31.6462 77.7781C37.0158 77.9409 40.002 74.3307 41.3661 71.2385C42.0362 69.7193 42.1408 68.0197 42.1408 66.3005V64.7088C41.9701 64.7511 41.7856 64.7797 41.5966 64.7986C41.2365 64.8346 40.8363 64.8377 40.4384 64.8217C39.6986 64.7918 38.9472 64.6948 38.4396 64.6076C36.2035 66.0095 33.1533 66.1473 30.2863 65.777C27.3722 65.4005 24.5861 64.4909 22.9021 63.7636L20.2701 62.8065Z" fill="#00105F"/>
<path d="M23.3099 73.3801C23.0406 73.6874 22.8209 73.9338 22.7377 74.017C25.4347 76.9837 27.5923 77.7928 31.9074 78.0625C36.2225 78.3322 39.369 75.1857 40.5377 73.4776L39.1365 72.2321C38.6034 71.7583 37.7611 71.8824 37.2856 72.4139C36.054 73.7907 33.8272 75.4686 30.8286 75.6352C28.3066 75.7753 26.6338 74.7098 25.6477 73.5762C25.0671 72.9086 23.8931 72.7146 23.3099 73.3801Z" fill="white"/>
<path fill-rule="evenodd" clip-rule="evenodd" d="M38.9473 72.4454C38.5533 72.0952 37.8891 72.1667 37.4976 72.6043C36.235 74.0158 33.9429 75.7478 30.8443 75.92C28.2231 76.0656 26.4687 74.9543 25.4329 73.7636C25.1932 73.4879 24.8221 73.3032 24.4482 73.2617C24.0758 73.2203 23.7387 73.3231 23.5239 73.5683C23.3724 73.7411 23.2335 73.8983 23.1251 74.0185C24.3847 75.3709 25.5216 76.2304 26.8278 76.7902C28.1992 77.3779 29.7791 77.6449 31.9251 77.7791C35.927 78.0292 38.9127 75.2285 40.1583 73.5218L38.9473 72.4454ZM37.0734 72.2248C37.6329 71.5994 38.6535 71.4227 39.3254 72.02L40.914 73.4321L40.7725 73.6389C39.5818 75.3791 36.3537 78.6261 31.8896 78.3471C29.7203 78.2115 28.0639 77.9392 26.6036 77.3133C25.1387 76.6855 23.8931 75.7117 22.5271 74.2091L22.3445 74.0083L22.5364 73.8164C22.6113 73.7415 22.8234 73.504 23.0958 73.1931C23.4641 72.7729 24.0056 72.6399 24.5111 72.696C25.0152 72.752 25.5214 72.9981 25.8624 73.39C26.7987 74.4666 28.3899 75.4863 30.8127 75.3517C33.7112 75.1907 35.8728 73.567 37.0734 72.2248Z" fill="#00105F"/>
<path d="M31.9073 68.624C25.974 68.3543 23.7265 65.6574 22.1982 63.7695L22.4679 63.4998L29.8549 65.3466C31.3824 65.7284 32.9774 65.7531 34.5159 65.4186L38.38 64.5786H39.9982L40.2679 64.8483C38.1103 68.0847 33.2558 68.624 31.9073 68.624Z" fill="white"/>
<path d="M31.9072 75.3665C28.4551 76.0138 25.7941 74.1978 24.8951 73.2089C25.6346 70.8675 27.1623 70.5532 28.6293 70.9281C29.4686 70.908 30.6725 71.7024 31.6309 72.4904C31.9337 72.7198 32.1307 72.893 32.1769 72.9392C34.5503 68.4083 36.7618 70.3322 37.5709 71.8605C37.1214 72.7594 35.3594 74.7192 31.9072 75.3665Z" fill="#EEAC57"/>
<path fill-rule="evenodd" clip-rule="evenodd" d="M36.9115 70.5356C37.2989 70.8865 37.6078 71.3215 37.8223 71.7267L37.8909 71.8561L37.8254 71.9871C37.3339 72.9701 35.4943 74.9828 31.9597 75.6456C28.384 76.316 25.6295 74.4392 24.6845 73.3997L24.5745 73.2786L24.6237 73.1226C25.0094 71.9013 25.6168 71.1622 26.3635 70.794C27.0925 70.4345 27.903 70.4541 28.6631 70.6425C29.1521 70.6433 29.7028 70.8649 30.2245 71.1573C30.7685 71.4621 31.3217 71.8675 31.8072 72.2664C31.9163 72.3491 32.013 72.4255 32.0949 72.4921C33.2401 70.4437 34.4091 69.7239 35.4919 69.8442C36.0446 69.9056 36.5245 70.185 36.9115 70.5356ZM32.5243 72.892C33.6604 70.8023 34.6849 70.3272 35.429 70.4098C35.827 70.4541 36.2 70.6589 36.5294 70.9574C36.8184 71.2191 37.0625 71.543 37.2464 71.8612C36.738 72.7331 35.0576 74.4856 31.8548 75.0862C28.6622 75.6848 26.1698 74.0946 25.2188 73.1358C25.571 72.1178 26.0738 71.5715 26.6152 71.3045C27.1899 71.021 27.8625 71.0252 28.5588 71.2032C29.693 71.4931 30.8065 72.2229 31.4545 72.7132C31.903 73.0822 32.2959 73.4492 32.5673 73.7253C32.6775 73.8374 32.8577 73.839 32.9698 73.7288C33.0819 73.6187 33.0834 73.4385 32.9732 73.3264C32.846 73.1969 32.6944 73.0495 32.5243 72.892Z" fill="#00105F"/>
<path fill-rule="evenodd" clip-rule="evenodd" d="M32.7704 57.0209H31.0629V55.8826H32.7704V57.0209Z" fill="#00105F"/>
<path d="M27.23 44.9394C25.4814 44.0836 23.4791 45.2844 22.2898 46.108C21.7027 46.5146 21.4979 47.1903 22.0492 47.6444C22.6496 48.1389 23.3726 47.9592 23.6591 47.8075C24.3683 47.2288 25.637 47.0139 26.1827 46.9789C27.4008 46.8022 27.7734 46.2632 27.8136 45.7907C27.8452 45.4184 27.5656 45.1036 27.23 44.9394Z" fill="#00105F"/>
<path d="M37.838 44.3171C39.7011 43.2265 41.5372 44.6728 42.6622 45.7519C43.2845 46.3488 43.7886 47.3506 43.2814 48.0479C43.2005 48.159 43.1034 48.2584 42.9868 48.3361C42.3395 48.7677 41.523 47.7068 41.2534 47.527C40.6061 46.8798 39.3655 46.5382 38.8261 46.4483C37.5155 46.1206 37.2622 45.4613 37.3343 44.9661C37.3755 44.683 37.5911 44.4617 37.838 44.3171Z" fill="#00105F"/>
<path fill-rule="evenodd" clip-rule="evenodd" d="M19.6125 61.6592L23.2178 62.9702L23.2333 62.9769C24.8562 63.6787 27.5691 64.5654 30.3958 64.9306C33.2439 65.2985 36.0856 65.1209 38.0699 63.8312L38.2594 63.7079L38.4819 63.7484C38.9558 63.8346 39.7246 63.9387 40.4729 63.9689C40.847 63.984 41.2046 63.9801 41.5117 63.9494C41.829 63.9176 42.047 63.8613 42.171 63.7993L42.9947 63.3875V66.3008C42.9947 68.0345 42.8945 69.8895 42.1473 71.5834C40.7099 74.8418 37.4779 78.8093 31.6204 78.6318C24.1933 78.4067 20.9768 73.2693 20.2989 70.6542C19.9455 69.2911 19.613 67.8307 19.4732 65.9692C19.4206 65.2695 19.3978 64.4905 19.3994 63.8287C19.4009 63.1895 19.4249 62.5976 19.4826 62.3089L19.6125 61.6592ZM20.5479 63.2106C20.542 63.3913 20.5382 63.6003 20.5377 63.8315C20.5361 64.469 20.5582 65.2182 20.6083 65.8839C20.7409 67.6485 21.0549 69.0347 21.4007 70.3685C21.9813 72.608 24.8421 77.2875 31.6549 77.494C36.8618 77.6518 39.7662 74.1607 41.1058 71.1239C41.7502 69.663 41.8563 68.0152 41.8563 66.3008V65.0537C41.7792 65.065 41.7019 65.0743 41.625 65.082C41.2473 65.1198 40.8328 65.1227 40.427 65.1063C39.723 65.0779 39.0107 64.9901 38.4981 64.9062C36.1864 66.3077 33.0982 66.4274 30.25 66.0595C27.3097 65.6797 24.502 64.7639 22.7971 64.0284L20.5479 63.2106Z" fill="#00105F"/>
<path fill-rule="evenodd" clip-rule="evenodd" d="M24.4027 54.1862C24.1093 54.1636 23.8138 54.1769 23.5233 54.2274C22.6961 54.3714 21.9662 54.8072 21.4711 55.453C20.9761 56.0987 20.7499 56.9098 20.8352 57.7337C20.9205 58.5575 21.3114 59.3373 21.9343 59.9263C22.5572 60.5153 23.3692 60.8729 24.2174 60.9318C25.0657 60.9907 25.8918 60.7469 26.5402 60.2461C27.1887 59.7454 27.6148 59.0223 27.7383 58.213C27.7934 57.8524 27.7867 57.4857 27.7213 57.127C27.3499 57.3904 26.896 57.5452 26.406 57.5452C26.0557 57.5452 25.7238 57.466 25.4274 57.3247C25.4193 57.4058 25.4179 57.4876 25.4212 57.5666C25.424 57.6345 25.4204 57.7025 25.4101 57.7699C25.3701 58.0318 25.2323 58.2657 25.0225 58.4278C24.8127 58.5898 24.5454 58.6687 24.2709 58.6496C23.9964 58.6306 23.7337 58.5149 23.5322 58.3243C23.3306 58.1337 23.2042 57.8814 23.1766 57.6148C23.149 57.3483 23.2221 57.0858 23.3823 56.8769C23.5425 56.668 23.7787 56.5269 24.0463 56.4804C24.1285 56.4661 24.2118 56.461 24.2949 56.4648C24.3516 56.4674 24.4097 56.4671 24.4676 56.4632C24.2531 56.1159 24.1294 55.7067 24.1294 55.2686C24.1294 54.8768 24.2284 54.5081 24.4027 54.1862Z" fill="#00105F"/>
<path fill-rule="evenodd" clip-rule="evenodd" d="M39.7703 54.1862C39.4769 54.1636 39.1814 54.1769 38.8909 54.2274C38.0637 54.3714 37.3338 54.8072 36.8388 55.453C36.3437 56.0987 36.1175 56.9098 36.2028 57.7337C36.2881 58.5575 36.679 59.3373 37.3019 59.9263C37.9248 60.5153 38.7368 60.8729 39.5851 60.9318C40.4333 60.9907 41.2594 60.7469 41.9079 60.2461C42.5563 59.7454 42.9824 59.0223 43.1059 58.213C43.161 57.8524 43.1543 57.4857 43.089 57.127C42.7175 57.3904 42.2636 57.5452 41.7736 57.5452C41.4233 57.5452 41.0915 57.466 40.795 57.3247C40.7869 57.4058 40.7855 57.4876 40.7888 57.5666C40.7916 57.6345 40.788 57.7025 40.7777 57.7699C40.7378 58.0318 40.5999 58.2657 40.3901 58.4278C40.1803 58.5898 39.913 58.6687 39.6385 58.6496C39.3641 58.6306 39.1013 58.5149 38.8998 58.3243C38.6982 58.1337 38.5718 57.8814 38.5442 57.6148C38.5166 57.3483 38.5898 57.0858 38.7499 56.8769C38.9101 56.668 39.1463 56.5269 39.4139 56.4804C39.4961 56.4661 39.5794 56.461 39.6625 56.4648C39.7192 56.4674 39.7773 56.4671 39.8352 56.4632C39.6208 56.1159 39.497 55.7067 39.497 55.2686C39.497 54.8768 39.596 54.5081 39.7703 54.1862Z" fill="#00105F"/>
<path d="M31.3678 55.9483C31.3678 60.1189 27.9869 63.4998 23.8163 63.4998C19.6458 63.4998 16.2648 60.1189 16.2648 55.9483C16.2648 51.7778 19.6458 48.3969 23.8163 48.3969C27.9869 48.3969 31.3678 51.7778 31.3678 55.9483Z" fill="url(#paint5_linear_1_6)" fill-opacity="0.6"/>
<path fill-rule="evenodd" clip-rule="evenodd" d="M23.8162 48.9661C19.96 48.9661 16.8339 52.0922 16.8339 55.9485C16.8339 59.8047 19.96 62.9308 23.8162 62.9308C27.6724 62.9308 30.7985 59.8047 30.7985 55.9485C30.7985 52.0922 27.6724 48.9661 23.8162 48.9661ZM15.6956 55.9485C15.6956 51.4636 19.3313 47.8278 23.8162 47.8278C28.3011 47.8278 31.9369 51.4636 31.9369 55.9485C31.9369 60.4334 28.3011 64.0691 23.8162 64.0691C19.3313 64.0691 15.6956 60.4334 15.6956 55.9485Z" fill="#00105F"/>
<path d="M48.4124 56.757C48.4124 61.0765 44.9107 64.5782 40.5912 64.5782C36.2717 64.5782 32.77 61.0765 32.77 56.757C32.77 52.4375 36.2717 48.9358 40.5912 48.9358C44.9107 48.9358 48.4124 52.4375 48.4124 56.757Z" fill="url(#paint6_linear_1_6)" fill-opacity="0.6"/>
<path fill-rule="evenodd" clip-rule="evenodd" d="M40.5916 49.5046C36.5864 49.5046 33.3395 52.7514 33.3395 56.7566C33.3395 60.7618 36.5864 64.0087 40.5916 64.0087C44.5968 64.0087 47.8436 60.7618 47.8436 56.7566C47.8436 52.7514 44.5968 49.5046 40.5916 49.5046ZM32.2012 56.7566C32.2012 52.1228 35.9577 48.3663 40.5916 48.3663C45.2254 48.3663 48.9819 52.1228 48.9819 56.7566C48.9819 61.3905 45.2254 65.147 40.5916 65.147C35.9577 65.147 32.2012 61.3905 32.2012 56.7566Z" fill="#00105F"/>
</g>
<path d="M85.104 52.536C87.952 53.848 90.368 55.432 92.352 57.288C94.368 59.144 95.376 61.16 95.376 63.336C95.376 65.256 94.848 66.68 93.792 67.608C92.736 68.536 91.44 69 89.904 69C87.696 69 85.616 67.992 83.664 65.976C81.744 63.928 79.888 61.256 78.096 57.96C78.096 60.232 77.968 62.136 77.712 63.672C77.488 65.208 76.976 66.488 76.176 67.512C75.376 68.504 74.176 69 72.576 69C70.912 69 69.68 68.376 68.88 67.128C68.112 65.88 67.632 64.376 67.44 62.616C67.28 60.856 67.2 58.552 67.2 55.704C67.2 53.688 67.216 51.304 67.248 48.552C67.312 45.768 67.376 44.04 67.44 43.368C67.504 40.968 68 39.048 68.928 37.608C69.856 36.136 71.168 35.4 72.864 35.4C74.816 35.4 76.176 36.232 76.944 37.896C77.744 39.56 78.144 42.104 78.144 45.528V46.968C79.776 44.024 81.664 41.384 83.808 39.048C85.952 36.712 88.096 35.544 90.24 35.544C91.744 35.544 92.976 36.12 93.936 37.272C94.928 38.392 95.424 39.784 95.424 41.448C95.424 43.688 94.464 45.832 92.544 47.88C90.656 49.896 88.176 51.448 85.104 52.536ZM107.504 69C105.168 69 103.12 68.424 101.36 67.272C99.5995 66.088 98.2395 64.456 97.2795 62.376C96.3515 60.264 95.8875 57.832 95.8875 55.08C95.8875 52.392 96.3195 50.28 97.1835 48.744C98.0475 47.208 99.2475 46.44 100.784 46.44C103.504 46.44 104.864 47.832 104.864 50.616C104.864 51.192 104.848 51.704 104.816 52.152C104.784 52.568 104.752 52.936 104.72 53.256C104.592 54.536 104.528 55.56 104.528 56.328C104.528 57.736 104.816 58.808 105.392 59.544C105.968 60.28 106.672 60.648 107.504 60.648C108.368 60.648 109.072 60.296 109.616 59.592C110.192 58.856 110.48 57.768 110.48 56.328C110.48 55.304 110.432 54.36 110.336 53.496C110.304 53.208 110.272 52.792 110.24 52.248C110.208 51.672 110.192 51.144 110.192 50.664C110.192 47.848 111.552 46.44 114.272 46.44C115.808 46.44 116.992 47.208 117.824 48.744C118.688 50.248 119.12 52.36 119.12 55.08C119.12 59.336 118.128 62.728 116.144 65.256C114.16 67.752 111.28 69 107.504 69ZM134.507 69C128.683 69 124.923 67.224 123.227 63.672C121.563 60.088 120.731 56.456 120.731 52.776C120.731 50.056 120.971 47.368 121.451 44.712C121.963 42.056 122.779 39.832 123.899 38.04C125.019 36.248 126.475 35.352 128.267 35.352C129.387 35.352 130.347 35.704 131.147 36.408C131.947 37.112 132.347 38.136 132.347 39.48C132.347 40.152 132.283 40.824 132.155 41.496C132.027 42.168 131.835 43 131.579 43.992C131.515 44.184 131.387 44.664 131.195 45.432C131.035 46.2 130.923 46.92 130.859 47.592C132.267 46.824 133.867 46.44 135.659 46.44C137.451 46.44 139.115 46.84 140.651 47.64C142.219 48.44 143.483 49.672 144.443 51.336C145.435 52.968 145.931 54.968 145.931 57.336C145.931 59.352 145.467 61.256 144.539 63.048C143.611 64.808 142.267 66.248 140.507 67.368C138.779 68.456 136.779 69 134.507 69ZM134.219 61.416C135.083 61.416 135.835 61.096 136.475 60.456C137.147 59.784 137.483 59 137.483 58.104C137.483 57.208 137.147 56.424 136.475 55.752C135.835 55.08 135.083 54.744 134.219 54.744C133.355 54.744 132.603 55.08 131.963 55.752C131.323 56.424 131.003 57.208 131.003 58.104C131.003 59 131.323 59.784 131.963 60.456C132.603 61.096 133.355 61.416 134.219 61.416ZM159.451 69C157.083 69 154.987 68.536 153.163 67.608C151.339 66.68 149.915 65.384 148.891 63.72C147.899 62.024 147.403 60.12 147.403 58.008C147.403 55.928 147.899 54.008 148.891 52.248C149.915 50.488 151.323 49.08 153.115 48.024C154.907 46.968 156.939 46.44 159.211 46.44C161.259 46.44 163.067 46.856 164.635 47.688C166.203 48.52 167.403 49.624 168.235 51C169.067 52.344 169.483 53.752 169.483 55.224C169.483 57.624 168.571 59.384 166.747 60.504C164.955 61.592 162.811 62.136 160.315 62.136C158.651 62.136 157.243 61.928 156.091 61.512C157.051 63.08 158.635 63.864 160.843 63.864C161.739 63.864 162.699 63.752 163.723 63.528C164.107 63.432 164.475 63.384 164.827 63.384C165.531 63.384 166.091 63.56 166.507 63.912C166.955 64.264 167.179 64.744 167.179 65.352C167.179 66.344 166.571 67.208 165.355 67.944C164.139 68.648 162.171 69 159.451 69ZM156.235 55.656C156.523 56.104 156.907 56.44 157.387 56.664C157.899 56.856 158.459 56.952 159.067 56.952C159.771 56.952 160.379 56.792 160.891 56.472C161.435 56.152 161.707 55.736 161.707 55.224C161.707 54.648 161.467 54.152 160.987 53.736C160.539 53.32 159.883 53.112 159.019 53.112C158.155 53.112 157.467 53.384 156.955 53.928C156.475 54.44 156.235 55.016 156.235 55.656Z" fill="black"/>
<path d="M184.496 69.048C182.384 69.048 180.352 68.76 178.4 68.184C176.48 67.576 174.912 66.744 173.696 65.688C172.48 64.6 171.872 63.368 171.872 61.992C171.872 60.68 172.272 59.64 173.072 58.872C173.872 58.104 174.88 57.72 176.096 57.72C176.896 57.72 177.584 57.832 178.16 58.056C178.768 58.248 179.424 58.536 180.128 58.92C180.64 59.176 181.072 59.384 181.424 59.544C181.808 59.672 182.208 59.736 182.624 59.736C183.68 59.736 184.208 59.32 184.208 58.488C184.208 58.168 183.984 57.896 183.536 57.672C183.088 57.416 182.336 57.08 181.28 56.664C179.392 55.928 177.856 55.208 176.672 54.504C174.848 53.416 173.584 52.232 172.88 50.952C172.208 49.672 171.872 48.072 171.872 46.152C171.872 44.296 172.464 42.552 173.648 40.92C174.832 39.256 176.448 37.928 178.496 36.936C180.544 35.944 182.784 35.448 185.216 35.448C187.584 35.448 189.744 35.816 191.696 36.552C193.68 37.256 195.232 38.248 196.352 39.528C197.504 40.776 198.08 42.168 198.08 43.704C198.08 45.464 197.552 46.792 196.496 47.688C195.472 48.552 194.32 48.984 193.04 48.984C191.984 48.984 191.184 48.92 190.64 48.792C190.128 48.664 189.616 48.488 189.104 48.264C188.688 48.104 188.336 47.992 188.048 47.928C187.76 47.832 187.36 47.784 186.848 47.784C186.432 47.784 186.032 47.928 185.648 48.216C185.296 48.472 185.12 48.84 185.12 49.32C185.12 49.672 185.328 49.976 185.744 50.232C186.16 50.456 186.64 50.664 187.184 50.856C187.728 51.048 188.112 51.192 188.336 51.288C191.312 52.376 193.504 53.624 194.912 55.032C196.32 56.408 197.024 58.2 197.024 60.408C197.024 63.128 195.92 65.256 193.712 66.792C191.536 68.296 188.464 69.048 184.496 69.048ZM205.144 68.904C203.544 68.904 202.344 68.312 201.544 67.128C200.744 65.944 200.2 64.2 199.912 61.896C199.656 59.56 199.528 56.312 199.528 52.152C199.528 48.152 199.624 45.032 199.816 42.792C200.04 40.552 200.552 38.76 201.352 37.416C202.184 36.072 203.464 35.4 205.192 35.4C206.92 35.4 208.184 36.072 208.984 37.416C209.816 38.76 210.328 40.552 210.52 42.792C210.744 45.032 210.856 48.152 210.856 52.152C210.856 56.088 210.68 59.272 210.328 61.704C210.008 64.104 209.432 65.912 208.6 67.128C207.768 68.312 206.616 68.904 205.144 68.904ZM218.879 45.72C217.311 45.72 215.983 45.16 214.895 44.04C213.807 42.888 213.263 41.496 213.263 39.864C213.263 38.264 213.807 36.904 214.895 35.784C215.983 34.632 217.311 34.056 218.879 34.056C220.415 34.056 221.727 34.632 222.815 35.784C223.935 36.904 224.495 38.264 224.495 39.864C224.495 41.496 223.935 42.888 222.815 44.04C221.727 45.16 220.415 45.72 218.879 45.72ZM218.879 69C217.567 69 216.591 68.632 215.951 67.896C215.343 67.128 214.927 65.992 214.703 64.488C214.511 62.952 214.415 60.776 214.415 57.96C214.415 55.592 214.527 53.72 214.751 52.344C215.007 50.968 215.455 49.944 216.095 49.272C216.735 48.6 217.663 48.264 218.879 48.264C220.191 48.264 221.151 48.648 221.759 49.416C222.399 50.152 222.815 51.288 223.007 52.824C223.231 54.328 223.343 56.488 223.343 59.304C223.343 61.672 223.215 63.544 222.959 64.92C222.735 66.296 222.303 67.32 221.663 67.992C221.023 68.664 220.095 69 218.879 69ZM237.726 68.952C235.678 68.952 233.742 68.456 231.918 67.464C230.126 66.44 228.686 65.064 227.598 63.336C226.51 61.608 225.966 59.672 225.966 57.528C225.966 55.288 226.494 53.336 227.55 51.672C228.638 49.976 230.062 48.68 231.822 47.784C233.614 46.888 235.534 46.44 237.582 46.44C239.534 46.44 241.294 46.824 242.862 47.592C244.43 48.36 245.646 49.368 246.51 50.616C247.374 51.832 247.806 53.112 247.806 54.456C247.806 55.576 247.454 56.44 246.75 57.048C246.078 57.656 245.07 57.96 243.726 57.96C243.022 57.96 242.478 57.832 242.094 57.576C241.71 57.32 241.31 56.936 240.894 56.424C240.51 55.944 240.142 55.592 239.79 55.368C239.47 55.112 239.006 54.984 238.398 54.984C237.534 54.984 236.798 55.288 236.19 55.896C235.582 56.472 235.278 57.224 235.278 58.152C235.278 59.112 235.566 59.88 236.142 60.456C236.75 61.032 237.502 61.32 238.398 61.32C238.974 61.32 239.422 61.24 239.742 61.08C240.062 60.92 240.414 60.664 240.798 60.312C241.246 59.928 241.662 59.656 242.046 59.496C242.43 59.304 242.99 59.208 243.726 59.208C245.038 59.208 246.046 59.56 246.75 60.264C247.454 60.968 247.806 61.784 247.806 62.712C247.806 63.8 247.374 64.824 246.51 65.784C245.678 66.744 244.494 67.512 242.958 68.088C241.422 68.664 239.678 68.952 237.726 68.952ZM261.779 69C259.411 69 257.315 68.536 255.491 67.608C253.667 66.68 252.243 65.384 251.219 63.72C250.227 62.024 249.731 60.12 249.731 58.008C249.731 55.928 250.227 54.008 251.219 52.248C252.243 50.488 253.651 49.08 255.443 48.024C257.235 46.968 259.267 46.44 261.539 46.44C263.587 46.44 265.395 46.856 266.963 47.688C268.531 48.52 269.731 49.624 270.563 51C271.395 52.344 271.811 53.752 271.811 55.224C271.811 57.624 270.899 59.384 269.075 60.504C267.283 61.592 265.139 62.136 262.643 62.136C260.979 62.136 259.571 61.928 258.419 61.512C259.379 63.08 260.963 63.864 263.171 63.864C264.067 63.864 265.027 63.752 266.051 63.528C266.435 63.432 266.803 63.384 267.155 63.384C267.859 63.384 268.419 63.56 268.835 63.912C269.283 64.264 269.507 64.744 269.507 65.352C269.507 66.344 268.899 67.208 267.683 67.944C266.467 68.648 264.499 69 261.779 69ZM258.563 55.656C258.851 56.104 259.235 56.44 259.715 56.664C260.227 56.856 260.787 56.952 261.395 56.952C262.099 56.952 262.707 56.792 263.219 56.472C263.763 56.152 264.035 55.736 264.035 55.224C264.035 54.648 263.795 54.152 263.315 53.736C262.867 53.32 262.211 53.112 261.347 53.112C260.483 53.112 259.795 53.384 259.283 53.928C258.803 54.44 258.563 55.016 258.563 55.656Z" fill="#69BDFA"/>
<defs>
<linearGradient id="paint0_linear_1_6" x1="18.5" y1="98.0001" x2="44.2993" y2="51.2166" gradientUnits="userSpaceOnUse">
<stop stop-color="#2C2AD2"/>
<stop offset="0.421114" stop-color="#2BBAFE"/>
</linearGradient>
<linearGradient id="paint1_linear_1_6" x1="24.6678" y1="88.0389" x2="24.6678" y2="97.1454" gradientUnits="userSpaceOnUse">
<stop/>
<stop offset="1" stop-opacity="0"/>
</linearGradient>
<linearGradient id="paint2_linear_1_6" x1="43.1132" y1="47.9142" x2="43.1132" y2="97.4305" gradientUnits="userSpaceOnUse">
<stop/>
<stop offset="1" stop-opacity="0"/>
</linearGradient>
<linearGradient id="paint3_linear_1_6" x1="30.5919" y1="69.8267" x2="30.5919" y2="75.2337" gradientUnits="userSpaceOnUse">
<stop/>
<stop offset="1" stop-opacity="0"/>
</linearGradient>
<linearGradient id="paint4_linear_1_6" x1="19.3027" y1="75.8022" x2="19.3027" y2="94.8688" gradientUnits="userSpaceOnUse">
<stop stop-color="white"/>
<stop offset="1" stop-color="white" stop-opacity="0"/>
</linearGradient>
<linearGradient id="paint5_linear_1_6" x1="23.8163" y1="48.3969" x2="23.8163" y2="63.4998" gradientUnits="userSpaceOnUse">
<stop stop-color="#2CB0FB" stop-opacity="0.54"/>
<stop offset="1" stop-color="#2C4ADC" stop-opacity="0.49"/>
</linearGradient>
<linearGradient id="paint6_linear_1_6" x1="40.5912" y1="48.9358" x2="40.5912" y2="64.5782" gradientUnits="userSpaceOnUse">
<stop stop-color="#2CB0FB" stop-opacity="0.54"/>
<stop offset="1" stop-color="#2C4ADC" stop-opacity="0.49"/>
</linearGradient>
<clipPath id="clip0_1_6">
<rect width="65" height="98" fill="white"/>
</clipPath>
</defs>
</svg>
