<svg width="289" height="121" viewBox="0 0 289 121" fill="none" xmlns="http://www.w3.org/2000/svg">
<path d="M280.086 0.433105H8.08594C3.66766 0.433105 0.0859375 4.01483 0.0859375 8.43311V112.433C0.0859375 116.851 3.66766 120.433 8.08594 120.433H280.086C284.504 120.433 288.086 116.851 288.086 112.433V8.43311C288.086 4.01483 284.504 0.433105 280.086 0.433105Z" fill="white"/>
<path d="M118.74 50.8801C116.515 48.3841 113.762 47.1281 110.491 47.1281C108.475 47.1281 106.618 47.5211 104.911 48.3161C103.205 49.1111 101.732 50.188 100.486 51.564C99.2479 52.949 98.2689 54.5561 97.5489 56.4201C96.8299 58.2751 96.4699 60.2841 96.4699 62.4551C96.4699 64.5831 96.8049 66.5241 97.4659 68.2761C98.1349 70.0201 99.0629 71.5161 100.268 72.7641C101.473 74.0121 102.903 74.987 104.56 75.687C106.216 76.3881 108.032 76.7391 110.006 76.7391C110.901 76.7391 111.729 76.671 112.482 76.542C113.235 76.414 113.955 76.2001 114.641 75.9101C115.327 75.6111 115.996 75.2341 116.665 74.7811C117.326 74.3201 118.021 73.7381 118.74 73.0461V80.4571H118.732V81.1751H109.596L102.728 89.0741V90.4331H128.503V87.2281V47.9061H118.74V50.8801ZM118.715 64.4641C118.372 65.25 117.92 65.9421 117.368 66.5321C116.807 67.1221 116.147 67.5751 115.377 67.909C114.607 68.2421 113.787 68.4041 112.926 68.4041C112.022 68.4041 111.186 68.2421 110.416 67.909C109.646 67.5751 108.977 67.1221 108.417 66.5321C107.856 65.9421 107.421 65.25 107.095 64.4641C106.768 63.677 106.609 62.8141 106.609 61.8991C106.609 61.0191 106.777 60.1901 107.12 59.4201C107.463 58.6511 107.915 57.984 108.5 57.411C109.077 56.839 109.738 56.386 110.491 56.035C111.244 55.685 112.056 55.5141 112.917 55.5141C113.746 55.5141 114.54 55.676 115.318 56.009C116.088 56.334 116.766 56.7961 117.343 57.3861C117.92 57.9761 118.372 58.6511 118.723 59.4201C119.066 60.1901 119.234 61.0361 119.234 61.9591C119.225 62.8391 119.058 63.677 118.715 64.4641Z" fill="#10239E"/>
<path d="M91.5009 51.3421C90.9819 50.7181 90.3969 50.1791 89.7689 49.7011C89.2089 49.2821 88.6149 48.9141 87.9709 48.6151C87.6609 48.4701 87.3349 48.3501 86.9919 48.2391C86.4979 48.0771 85.9629 47.9661 85.4109 47.8711H78.4499L73.8489 53.2311V52.6071V47.9831H64.0859V76.2601H73.8489V64.1301V57.1801H75.2039H77.9229H82.9009H83.0179L83.7789 57.1631V76.2521H93.5419V58.5651C93.5419 57.0611 93.3999 55.7191 93.1159 54.5391C92.8309 53.3681 92.2959 52.3081 91.5009 51.3421Z" fill="#10239E"/>
<path d="M157.214 47.9061H149.978C149.978 47.9061 147.393 47.9061 146.565 47.9061L142.331 52.7781V47.9061H132.56V76.1831H142.348L142.357 57.2571H145.569H149.459L157.214 48.2991V47.9061Z" fill="#10239E"/>
<path d="M209.971 60.9671L223.323 48.3841V47.9061H210.456L200.216 58.1041V30.4331H190.453V76.1751H200.216V64.6601L210.95 76.1751H224.086V75.6361L209.971 60.9671Z" fill="#10239E"/>
<path d="M182.823 51.1282C181.334 49.7862 179.568 48.7432 177.536 47.9912C175.503 47.2392 173.302 46.8632 170.926 46.8632C168.517 46.8632 166.292 47.2472 164.267 48.0172C162.234 48.7862 160.486 49.8462 159.005 51.1802C157.533 52.5222 156.378 54.1032 155.55 55.9242C154.722 57.7452 154.312 59.7022 154.312 61.7962C154.312 64.1132 154.722 66.2162 155.55 68.1052C156.378 69.9942 157.516 71.6182 158.98 72.9782C160.436 74.3372 162.167 75.3882 164.184 76.1232C166.2 76.8582 168.392 77.2262 170.768 77.2262C173.177 77.2262 175.411 76.8582 177.485 76.1232C179.552 75.3882 181.325 74.3542 182.798 73.0032C184.27 71.6612 185.433 70.0632 186.278 68.2082C187.123 66.3532 187.55 64.3102 187.55 62.0612C187.55 59.8222 187.131 57.7702 186.311 55.9152C185.475 54.0692 184.312 52.4702 182.823 51.1282ZM176.724 64.5152C176.381 65.3012 175.929 65.9942 175.377 66.5832C174.817 67.1732 174.156 67.6262 173.386 67.9602C172.608 68.2932 171.797 68.4562 170.935 68.4562C170.073 68.4562 169.253 68.2932 168.475 67.9602C167.706 67.6262 167.036 67.1732 166.484 66.5832C165.924 65.9942 165.48 65.3012 165.137 64.5152C164.794 63.7282 164.627 62.8562 164.627 61.8992C164.627 61.0192 164.794 60.1892 165.137 59.4202C165.48 58.6512 165.924 57.9752 166.484 57.3862C167.045 56.7962 167.706 56.3342 168.475 56.0092C169.253 55.6762 170.065 55.5132 170.935 55.5132C171.797 55.5132 172.616 55.6762 173.386 56.0092C174.156 56.3342 174.825 56.7962 175.377 57.3862C175.938 57.9752 176.381 58.6682 176.724 59.4542C177.067 60.2412 177.234 61.0782 177.234 61.9592C177.234 62.8742 177.067 63.7282 176.724 64.5152Z" fill="#10239E"/>
</svg>
