<svg width="180" height="180" viewBox="0 0 180 180" fill="none" xmlns="http://www.w3.org/2000/svg">
<rect width="180" height="180" fill="#00BDFF"/>
<path d="M46.0961 119.227C42.9763 119.179 38.9205 119.006 36.9527 118.382C35.0328 117.757 33.4969 116.892 32.3449 115.787C31.241 114.633 30.473 113.264 30.0411 111.678C29.6571 110.044 29.4651 108.218 29.4651 106.199V67.6782L40.1925 61.9056V104.037C40.1925 104.998 40.2645 105.863 40.4085 106.632C40.5525 107.401 40.8164 108.05 41.2004 108.578C41.6324 109.107 42.2324 109.539 43.0003 109.876C43.7683 110.212 44.585 110.173 46.0961 110.173V119.227Z" fill="white"/>
<path d="M112.592 61.7806C114.608 61.7806 116.456 61.9968 118.136 62.4293C119.816 62.8138 120.184 63.2336 120.184 63.2336V72.1234C119.225 71.6909 117.92 71.4158 116.768 71.2235C115.664 70.9833 114.632 70.8631 113.672 70.8631C112.376 70.8631 111.272 71.0554 110.36 71.4398C109.497 71.7762 108.801 72.2567 108.273 72.8815C107.793 73.5062 107.433 74.2511 107.193 75.1161C107.001 75.9811 106.905 76.9182 106.905 77.9273V79.8015H120.152V88.7399H106.905V119.391H96.1773V77.7832C96.1773 72.8815 97.5452 68.989 100.281 66.1056C103.065 63.2223 107.169 61.7806 112.592 61.7806Z" fill="white"/>
<path d="M125.99 76.1642L136.718 70.3718V80.7538H149.599V89.6922H136.718V103.028C136.718 105.286 137.102 107.088 137.869 108.434C138.685 109.78 140.293 110.452 142.693 110.452C143.845 110.452 145.021 110.356 146.221 110.164C147.469 109.924 148.591 109.613 149.599 109.229V117.96C148.34 118.537 148.381 118.574 146.797 118.958C145.213 119.343 143.269 119.535 140.965 119.535C138.037 119.535 135.614 119.15 133.694 118.382C131.774 117.565 130.238 116.459 129.086 115.066C127.934 113.624 127.118 111.894 126.638 109.876C126.206 107.857 125.99 105.623 125.99 103.172V76.1642Z" fill="white"/>
<path d="M51.3832 100.326C51.3832 96.7494 52.2073 93.5463 53.8553 90.7168C55.5565 87.8874 57.9222 85.6719 60.9525 84.0703C63.9828 82.4153 67.4648 81.5878 71.3989 81.5878C75.3861 81.5878 78.8416 82.4153 81.7656 84.0703C84.6895 85.6719 86.9225 87.8874 88.4642 90.7168C90.0591 93.5463 90.8565 96.7494 90.8565 100.326C90.8565 103.903 90.0591 107.133 88.4642 110.016C86.9225 112.845 84.6895 115.088 81.7656 116.742C78.8416 118.397 75.333 119.225 71.2395 119.225C67.4118 119.225 63.9828 118.478 60.9525 116.983C57.9754 115.488 55.6362 113.326 53.935 110.496C52.2338 107.667 51.3832 104.277 51.3832 100.326ZM62.6271 100.406C62.6271 103.182 63.4245 105.505 65.0194 107.373C66.6143 109.188 68.6345 110.096 71.08 110.096C73.685 110.096 75.7582 109.188 77.3 107.373C78.8417 105.505 79.6126 103.182 79.6126 100.406C79.6126 97.6303 78.8417 95.3347 77.3 93.5196C75.7582 91.6511 73.685 90.7168 71.08 90.7168C68.6345 90.7168 66.6143 91.6511 65.0194 93.5196C63.4245 95.3347 62.6271 97.6303 62.6271 100.406Z" fill="white"/>
<path d="M71.1027 60.4651L52.0629 71.032V81.5988L71.1027 71.032L90.1425 81.5988V71.032L71.1027 60.4651Z" fill="white"/>
</svg>
