<svg width="100" height="100" viewBox="0 0 100 100" fill="none" xmlns="http://www.w3.org/2000/svg">
<circle cx="50" cy="50" r="35" fill="#ADCC14"/>
<path d="M50 15C45.4037 15 40.8525 15.9053 36.6061 17.6642C32.3597 19.4231 28.5013 22.0012 25.2513 25.2513C22.0012 28.5013 19.4231 32.3597 17.6642 36.6061C15.9053 40.8525 15 45.4037 15 50L50 50L50 15Z" fill="url(#paint0_radial)"/>
<path d="M50 85C54.5963 85 59.1475 84.0947 63.3939 82.3358C67.6403 80.5769 71.4987 77.9988 74.7487 74.7487C77.9988 71.4987 80.5769 67.6403 82.3358 63.3939C84.0947 59.1475 85 54.5963 85 50L50 50L50 85Z" fill="url(#paint1_radial)"/>
<defs>
<radialGradient id="paint0_radial" cx="0" cy="0" r="1" gradientUnits="userSpaceOnUse" gradientTransform="translate(50 50) rotate(90) scale(35)">
<stop stop-color="#70991F"/>
<stop offset="1" stop-color="#384D0F"/>
</radialGradient>
<radialGradient id="paint1_radial" cx="0" cy="0" r="1" gradientUnits="userSpaceOnUse" gradientTransform="translate(50 50) rotate(90) scale(35)">
<stop stop-color="#70991F"/>
<stop offset="1" stop-color="#384D0F"/>
</radialGradient>
</defs>
</svg>
