<svg width="180" height="273" viewBox="0 0 180 273" fill="none" xmlns="http://www.w3.org/2000/svg">
<path fill-rule="evenodd" clip-rule="evenodd" d="M117.219 73.4777L137.261 94.824L135.333 120.157L153.184 140.078L180 88.923L142.186 25.6499L97.2949 0L69.5152 10.3365L57.8303 41.6101L73.2913 65.3854L117.219 73.4777Z" fill="#310401"/>
<path fill-rule="evenodd" clip-rule="evenodd" d="M118.38 71.0222L140.258 93.5434L137.103 120.329L152.233 136.988L176.118 89.5963L140.337 27.5376L97.057 2.81183L71.4163 12.3563L61.3818 41.544L75.8262 62.8243L118.38 71.0222Z" fill="#CB3805"/>
<path fill-rule="evenodd" clip-rule="evenodd" d="M118.38 71.0222L140.258 93.5434L137.103 120.329L143.823 127.721L158.043 99.0351L130.765 53.6231L86.9698 46.9565L67.6798 23.2208L61.3818 41.544L75.8262 62.8243L118.38 71.0222Z" fill="#780500"/>
<path fill-rule="evenodd" clip-rule="evenodd" d="M176.343 89.5303L140.338 27.5376L97.0572 2.81183L71.4165 12.3563L95.3144 15.1153L137.301 35.3131L171.141 90.9824L148.959 133.385L152.234 136.988L176.343 89.5303Z" fill="#ED6437"/>
<path fill-rule="evenodd" clip-rule="evenodd" d="M61.3818 41.5441L71.6408 56.6594L86.9698 46.9565L98.0605 16.4487L92.7924 4.396L71.4163 12.3563L61.3818 41.5441Z" fill="#401715"/>
<path fill-rule="evenodd" clip-rule="evenodd" d="M98.4304 67.1807L84.699 64.5405L101.771 53.6231L111.766 23.102L110.01 10.2045L128.534 20.7918L127.227 30.6003L112.914 58.732L98.4304 67.1807Z" fill="#401715"/>
<path fill-rule="evenodd" clip-rule="evenodd" d="M118.38 71.0223L109.046 69.2137L127.451 60.9762L140.285 40.2107L140.337 27.5376L149.646 43.5638L147.718 52.4482L132.97 67.6824L120.651 73.3589L118.38 71.0223Z" fill="#401715"/>
<path fill-rule="evenodd" clip-rule="evenodd" d="M163.932 68.1708L155.112 52.9763L154.227 63.1412L142.318 72.844L127.821 80.7383L133.327 86.494L148.193 82.6261L160.671 73.7681L163.932 68.1708Z" fill="#401715"/>
<path fill-rule="evenodd" clip-rule="evenodd" d="M176.343 89.5303L170.797 79.0882L166.717 83.6954L153.646 91.6953L140.258 93.5435L139.69 98.3883L157.554 99.9856L168.513 96.0253L174.864 92.4478L176.343 89.5303Z" fill="#401715"/>
<path fill-rule="evenodd" clip-rule="evenodd" d="M138.964 104.54L151.758 109.068L161.212 109.979L167.364 107.207L162.387 116.844L157.594 116.896L149.963 115.352L138.212 110.863L138.964 104.54Z" fill="#401715"/>
<path fill-rule="evenodd" clip-rule="evenodd" d="M113.35 258.598L145.553 260.287L157.964 264.195L110.723 266.043L79.2724 272.432L44.4686 270.36L16.9002 269.964L0 261.753L6.77327 258.254L59.1506 256.763L113.35 258.598Z" fill="#D6D3D3"/>
<path fill-rule="evenodd" clip-rule="evenodd" d="M159.931 83.6162L162.374 94.1375L161.753 98.9295L149.949 105.847L44.4027 106.309L27.3705 114.032L16.4646 109.134L16.3193 99.4312L32.9818 80.3423L55.4142 71.6031L54.886 64.9761L61.9234 58.4416L66.9274 55.9861L67.6932 55.6165L69.3304 55.9465L77.9653 57.6495L79.2989 67.4448L74.6777 71.8011L129.075 78.9826L127.94 75.2862L133.974 69.6626L139.242 67.6032L148.735 69.5041L150.834 78.4281L147.19 81.9264L159.931 83.6162Z" fill="#310401"/>
<path fill-rule="evenodd" clip-rule="evenodd" d="M56.8137 65.5702L58.5037 72.9496L66.9538 74.415L71.9711 71.9728L67.9309 57.4515L62.9136 59.8937L56.8137 65.5702Z" fill="#F0BC95"/>
<path fill-rule="evenodd" clip-rule="evenodd" d="M58.5037 72.9496L66.9537 74.415L71.971 71.9728L70.8751 68.0256L63.5077 70.4942L58.5037 72.9496Z" fill="#CB3805"/>
<path fill-rule="evenodd" clip-rule="evenodd" d="M61.8176 63.1148L63.5208 70.4942L71.9709 71.9728L77.4503 66.7979L76.4072 59.128L67.9307 57.4515L61.8176 63.1148Z" fill="#FEE7D5"/>
<path fill-rule="evenodd" clip-rule="evenodd" d="M66.5049 64.0917L67.1783 67.0355L70.5583 67.6296L72.7368 65.5702L72.3275 62.5075L68.9475 61.8343L66.5049 64.0917Z" fill="#780500"/>
<path fill-rule="evenodd" clip-rule="evenodd" d="M130.646 76.8176L132.587 83.0617L139.955 84.3026L144.127 82.2168L139.717 69.9398L135.558 72.0123L130.646 76.8176Z" fill="#F0BC95"/>
<path fill-rule="evenodd" clip-rule="evenodd" d="M132.587 83.0617L139.955 84.3026L144.127 82.2169L142.925 78.8902L136.746 80.976L132.587 83.0617Z" fill="#CB3805"/>
<path fill-rule="evenodd" clip-rule="evenodd" d="M134.818 74.7318L136.746 80.9759L144.127 82.2168L148.523 77.8341L147.124 71.3523L139.717 69.9398L134.818 74.7318Z" fill="#FEE7D5"/>
<path fill-rule="evenodd" clip-rule="evenodd" d="M138.911 75.5635L139.677 78.0585L142.635 78.5469L144.391 76.7912L143.823 74.2037L140.865 73.6493L138.911 75.5635Z" fill="#780500"/>
<path fill-rule="evenodd" clip-rule="evenodd" d="M27.3704 112.117L18.1941 107.999L35.9525 87.9726L63.0191 77.5569L157.422 89.5831L159.443 97.4642L148.893 103.484L44.0197 104.566L27.3704 112.117Z" fill="#1E2D45"/>
<path fill-rule="evenodd" clip-rule="evenodd" d="M35.9524 87.9726L18.194 107.999L18.0752 100.065L33.9983 81.834L35.9524 87.9726Z" fill="#3A4E6F"/>
<path fill-rule="evenodd" clip-rule="evenodd" d="M63.019 77.5568L35.9524 87.9726L33.9983 81.834L62.0816 71.7483L63.019 77.5568Z" fill="#445C82"/>
<path fill-rule="evenodd" clip-rule="evenodd" d="M63.0192 77.5568L157.422 89.5831L157.99 85.5699L62.0818 71.7483L63.0192 77.5568Z" fill="#5A7596"/>
<path fill-rule="evenodd" clip-rule="evenodd" d="M157.422 89.5831L159.442 97.4642L160.155 94.1771L157.99 85.5699L157.422 89.5831Z" fill="#97B0C4"/>
<path fill-rule="evenodd" clip-rule="evenodd" d="M74.8361 120.923L85.8345 140.328L84.2501 158.203L74.8229 165.688L64.6696 170.321L39.7551 134.441L30.3412 117.002L28.3079 117.57L18.8015 112.342L23.1586 105.847L34.1569 107.761L44.0065 104.144L53.1564 104.461L74.8361 120.923Z" fill="#310401"/>
<path fill-rule="evenodd" clip-rule="evenodd" d="M44.4026 106.309L34.3549 109.992L24.1752 108.21L21.9175 111.589L28.5851 115.246L36.2034 113.094L32.7441 116.91L41.5639 133.239L68.1553 166.599L73.661 163.866L82.1771 157.094L83.6163 140.975L72.7236 123.008L52.1793 106.151L44.4026 106.309Z" fill="#401715"/>
<path fill-rule="evenodd" clip-rule="evenodd" d="M52.1793 106.151L44.4026 106.309L49.2614 127.906L76.7506 161.411L82.1771 157.094L83.6163 140.975L72.7236 123.008L52.1793 106.151Z" fill="#780500"/>
<path fill-rule="evenodd" clip-rule="evenodd" d="M83.6163 140.975L72.816 127.761L72.4991 112.672L65.5542 114.362L57.2362 118.19L42.5938 110.098L52.7074 99.7348L87.7357 91.9725L92.5945 100.936L93.6375 100.606L112.399 108.25L119.516 110.467L113.733 100.857L122.17 94.0319L149.778 99.2727L152.471 114.52L169.992 129.939L165.542 148.751L163.417 180.328L117.575 219.839L111.304 250.756L95.4332 265.475L83.4446 270.135L60.1013 269.436L64.8808 255.654L75.8131 249.608L76.9618 204.816L69.568 201.371L69.436 167.206L82.1771 157.094L83.6163 140.975Z" fill="#310401"/>
<path fill-rule="evenodd" clip-rule="evenodd" d="M83.6294 157.939L68.6569 170.084L71.6408 199.958L79.1666 203.456L77.9387 251.35L66.65 257.594L63.1115 267.812L83.0748 268.406L94.258 264.063L109.376 250.043L115.647 218.638L161.317 179.285L163.39 148.421L167.589 130.705L152.432 117.358L152.445 126.731L147.903 101.108L122.751 96.3421L116.558 101.359L122.473 111.18L140.628 113.754L146.305 108.355L141.948 115.774L122.869 113.147L116.915 135.312L125.497 152.473L114.591 135.668L120.493 113.028L111.673 110.296L93.5582 102.903L85.4514 105.53L90.429 101.477L86.6133 94.4279L53.8032 101.702L46.1189 109.57L57.3285 115.774L64.8279 112.316L74.6115 109.939L74.968 126.969L85.3326 139.668L98.4434 140.196L109.283 134.718L99.8958 142.282L85.8079 141.635L83.6294 157.939Z" fill="#CB3805"/>
<path fill-rule="evenodd" clip-rule="evenodd" d="M109.878 247.509L115.647 218.638L161.317 179.285L163.39 148.421L160.129 138.744L141.816 150.124L149.738 169.925L133.881 192.552L108.636 208.05L109.878 247.509Z" fill="#F68857"/>
<path fill-rule="evenodd" clip-rule="evenodd" d="M125.497 152.473L114.591 135.668L120.493 113.028L104.108 121.266L98.4435 140.196L109.283 134.718L99.8959 142.282L89.9406 141.82L86.1381 159.694L79.8269 165.16L72.6179 175.417L78.5594 190.598L90.3367 198.031L102.325 190.268L122.341 190.744L139.743 170.48L125.497 152.473Z" fill="#780500"/>
<path fill-rule="evenodd" clip-rule="evenodd" d="M116.083 111.669L111.673 110.349L93.5582 102.956L85.4514 105.596L90.429 101.543L86.6133 94.4411L53.8032 101.702L46.1189 109.622L57.3285 115.814L64.8807 112.316L74.6643 109.939L75.0208 126.982L84.2631 138.309L90.8647 121.147L97.5456 116.738L116.083 111.669ZM158.109 122.362L152.432 117.358V126.731L147.89 101.121L122.803 96.3553L116.598 101.359L122.513 111.193L140.667 113.834L146.345 108.421L141.988 115.84L122.922 113.2L116.915 135.365L133.723 149.134L155.587 135.536L158.109 122.362Z" fill="#401715"/>
<path fill-rule="evenodd" clip-rule="evenodd" d="M78.4802 225.568L77.9388 251.35L66.65 257.594L63.1116 267.812L83.0749 268.406L94.2581 264.063L101.824 257.053L89.7689 231.667L78.4802 225.568Z" fill="#401715"/>
<path fill-rule="evenodd" clip-rule="evenodd" d="M31.4501 93.4114L36.3881 87.2861L36.6389 86.9825L36.5597 85.9924L36.1768 80.5667L26.1424 82.7845L24.8616 85.1079L19.3163 88.7646L19.3823 91.2596L15.6326 94.4543L17.2962 100.963L26.9214 99.616L31.4501 93.4114Z" fill="#310401"/>
<path fill-rule="evenodd" clip-rule="evenodd" d="M18.2468 95.2992L19.039 98.4411L25.7991 97.517L28.8094 93.4246L24.1619 92.2101L30.5259 91.1672L33.4306 87.5897L29.9185 86.9693L34.6585 85.3455L34.5 83.1541L27.9776 84.5799L26.8818 86.5204L21.7985 89.8603L21.8513 92.2497L18.2468 95.2992Z" fill="#401715"/>
<path fill-rule="evenodd" clip-rule="evenodd" d="M56.1536 71.4447L61.9498 69.7154L68.7495 72.712L62.0818 71.7483L57.8964 73.2533L56.1536 71.4447Z" fill="#310401"/>
<path fill-rule="evenodd" clip-rule="evenodd" d="M130.395 81.5964L129.035 79.6426L140.483 83.0485L130.395 81.5964Z" fill="#310401"/>
<path fill-rule="evenodd" clip-rule="evenodd" d="M72.9349 262.426L80.7908 257.819L72.1031 260.34L69.7529 261.027L73.463 269.647L86.8247 268.631L74.8494 267.64L72.9349 262.426Z" fill="#310401"/>
<path fill-rule="evenodd" clip-rule="evenodd" d="M8.38413 188.75L19.7125 189.067L23.5679 204.763L24.5713 231.839L28.3211 239.865L41.894 231.245L47.4394 233.568L58.002 232.697L63.2833 223.958L75.1662 227.443L72.7368 222.598L80.2363 223.681L81.7678 198.149L79.9194 183.813L73.9647 166.77L60.9199 144.804L54.7672 149.226L54.688 143.813L45.6965 152.434L37.0352 147.153L27.2516 151.206L23.4358 156.975L7.98804 179.919C8.13327 183.087 8.21249 185.054 8.38413 188.777" fill="#310401"/>
<path fill-rule="evenodd" clip-rule="evenodd" d="M29.0472 213.252C10.0874 239.047 64.696 221.053 61.7649 221.304V220.486L61.0123 220.169C52.5226 216.539 35.2792 206.031 29.0208 213.252" fill="#310401"/>
<path fill-rule="evenodd" clip-rule="evenodd" d="M20.3463 177.714C11.2756 157.279 54.4899 152.355 45.6305 155.444L46.0266 156.157L45.5117 156.803C39.6626 163.945 29.2188 181.226 20.3463 177.714" fill="#310401"/>
<path fill-rule="evenodd" clip-rule="evenodd" d="M26.1689 205.569L28.8492 211.549L42.2901 215.522L40.0852 218.928L44.7855 217.12L47.0697 221.304L47.9279 217.159L71.1128 223.918L69.0531 219.813L78.3746 221.159L80.1174 198.638L77.4372 182.546L72.3803 167.048L60.4182 147.879L52.7735 153.384L52.7075 148.804L35.266 165.503L32.5989 162.229L32.5065 166.982L27.4892 167.562L31.0277 169.569L21.5082 177.516L23.3434 178.15L21.429 186.189L26.1689 205.569Z" fill="#CB3805"/>
<path fill-rule="evenodd" clip-rule="evenodd" d="M57.5266 175.074L48.7201 164.764L40.6265 167.734L56.8533 158.44L69.6472 162.665L72.3803 167.048L78.7311 184.249L80.1174 198.638L69.4888 209.582L51.6116 207.536L60.7746 200.42L62.161 193.952L56.7344 185.278L57.5266 175.074Z" fill="#780500"/>
<path fill-rule="evenodd" clip-rule="evenodd" d="M39.5833 214.928L42.2899 215.522L40.085 218.928L44.7853 217.12L47.0695 221.304L47.9277 217.159L71.1126 223.918L69.0529 219.813L78.3744 221.159L79.1798 210.849L75.4433 218.466L39.6097 214.743L39.5833 214.928Z" fill="#ED6437"/>
<path fill-rule="evenodd" clip-rule="evenodd" d="M54.4899 183.483L61.3556 189.054L62.4779 194.268L69.304 195.786L77.8465 186.546L78.6387 183.998L74.4929 172.843L64.1415 164.381L57.1042 165.569L55.0709 169.912L52.8923 176.988L54.4899 183.483Z" fill="#FEE7D5"/>
<path fill-rule="evenodd" clip-rule="evenodd" d="M72.5518 180.038L65.8182 188.882L69.3038 195.786L77.8463 186.546L78.6385 183.998L74.4927 172.843L64.1414 164.381L59.7051 165.411L61.8308 167.166L63.3888 167.84L69.9112 170.585L72.5518 180.038Z" fill="#F0BC95"/>
<path fill-rule="evenodd" clip-rule="evenodd" d="M43.1746 186.163L34.1172 187.839L34.6321 194.651L42.9766 192.315L43.1746 186.163Z" fill="#F0BC95"/>
<path fill-rule="evenodd" clip-rule="evenodd" d="M40.4415 198.308L36.4673 195.866L43.2934 193.899L43.7027 196.684L40.4415 198.308Z" fill="#F0BC95"/>
<path fill-rule="evenodd" clip-rule="evenodd" d="M35.1471 210.757L28.8491 211.549L27.3835 231.1L29.9846 236.67L41.9335 227.918L47.4525 230.968L55.8762 224.974L52.0472 230.611L56.8796 230.506L61.4479 222.849L52.1132 218.374L48.7464 224.71L41.9203 222.849L33.0741 227.892L39.6098 214.743L35.1471 210.757Z" fill="#FEE7D5"/>
<path fill-rule="evenodd" clip-rule="evenodd" d="M33.0742 227.905L39.6758 214.704L35.2131 210.743L37.1408 215.139L33.0742 227.905ZM61.4612 222.849L52.1133 218.387L48.7465 224.723L41.9204 222.849L33.0742 227.905L42.3165 224.248L47.5318 227.007L55.9291 224.974L61.4612 222.849Z" fill="#F0BC95"/>
<path fill-rule="evenodd" clip-rule="evenodd" d="M28.8492 211.549L26.1689 205.569L27.3836 231.1L28.8492 211.549Z" fill="#780500"/>
<path fill-rule="evenodd" clip-rule="evenodd" d="M54.2919 174.427L51.0703 169.094L49.4331 168.341L46.5151 172.236L48.3108 175.589L53.1564 176.605L54.2919 174.427Z" fill="#310401"/>
<path fill-rule="evenodd" clip-rule="evenodd" d="M47.8618 173.094L49.433 175.734L52.681 175.958L53.8561 174.229L51.7568 170.757L49.7631 170.585L47.8618 173.094Z" fill="#780500"/>
<path fill-rule="evenodd" clip-rule="evenodd" d="M48.7859 173.516L49.8421 175.496L51.9811 175.681L53.1166 173.833L52.1791 171.892L50.027 171.668L48.7859 173.516Z" fill="#310401"/>
<path fill-rule="evenodd" clip-rule="evenodd" d="M48.4956 174.242L49.0633 175.245L50.3705 175.325L51.0174 174.282L50.4761 173.173L49.2482 173.041L48.4956 174.242Z" fill="#FEE7D5"/>
<path fill-rule="evenodd" clip-rule="evenodd" d="M48.2843 175.589L53.3147 176.368L52.1397 177.991L47.1752 177.305L44.2705 171.774L47.5713 167.021L49.433 168.341L46.7263 171.958L48.2843 175.589Z" fill="#FEE7D5"/>
<path fill-rule="evenodd" clip-rule="evenodd" d="M56.1534 195.813L51.6907 192.499L52.0472 188.13L56.0345 185.028L58.1075 187.958L56.9324 194.823L56.1534 195.813Z" fill="#310401"/>
<path fill-rule="evenodd" clip-rule="evenodd" d="M70.7299 208.288L80.1174 198.638L79.18 210.849L71.5749 215.826L67.0198 213.45L67.7327 216.552L51.6116 207.536L70.7299 208.288Z" fill="#FEE7D5"/>
<path fill-rule="evenodd" clip-rule="evenodd" d="M54.4898 183.483L50.3836 184.103L49.895 182.07L49.3933 180.038L52.8922 176.988L54.4898 183.483Z" fill="#ED6437"/>
<path fill-rule="evenodd" clip-rule="evenodd" d="M52.5225 192.447L52.7865 188.856L55.6648 187.311L57.883 189.014L57.1964 193.318L55.3876 194.48L52.5225 192.447Z" fill="#780500"/>
<path fill-rule="evenodd" clip-rule="evenodd" d="M53.2092 192.341L53.3809 189.978L55.2821 188.961L57.0778 190.348L56.9986 192.618L55.0973 193.688L53.2092 192.341Z" fill="#310401"/>
<path fill-rule="evenodd" clip-rule="evenodd" d="M53.3147 189.397L53.4335 188.196L54.5954 187.602L55.6253 188.381L55.5725 189.674L54.4898 190.282L53.3147 189.397Z" fill="#FEE7D5"/>
<path fill-rule="evenodd" clip-rule="evenodd" d="M29.6809 184.882L25.6407 203.417L23.5678 194.928L21.4817 186.453L29.6809 184.882Z" fill="#ED6437"/>
<path fill-rule="evenodd" clip-rule="evenodd" d="M80.1174 198.638L76.645 202.215L75.3246 209.516L71.0732 213.12L67.0198 213.45L71.5749 215.826L79.18 210.849L80.1174 198.638Z" fill="#F0BC95"/>
<path fill-rule="evenodd" clip-rule="evenodd" d="M34.6321 194.651L34.1172 187.839L41.9731 186.387L41.511 189.674L34.6321 194.651Z" fill="#FEE7D5"/>
<path fill-rule="evenodd" clip-rule="evenodd" d="M40.4415 198.308L36.4673 195.866L42.3031 195.496L40.4415 198.308Z" fill="#FEE7D5"/>
<path fill-rule="evenodd" clip-rule="evenodd" d="M28.902 171.338L31.0277 169.569L27.4893 167.562L32.5065 166.982L32.5989 162.229L35.266 165.503L52.7075 148.804L52.7735 153.384L60.4182 147.879L65.8975 156.658L59.0582 151.629L29.0076 171.483L28.902 171.338Z" fill="#ED6437"/>
<path fill-rule="evenodd" clip-rule="evenodd" d="M41.6432 180.922L33.2327 184.724L29.7734 178.836L37.9463 175.985L41.6432 180.922Z" fill="#F0BC95"/>
<path fill-rule="evenodd" clip-rule="evenodd" d="M34.2359 172.262L32.3611 176.539L39.0947 174.242L37.8404 171.734L34.2359 172.262Z" fill="#F0BC95"/>
<path fill-rule="evenodd" clip-rule="evenodd" d="M23.3433 178.15L21.4288 186.189L10.8662 186.612L23.3433 178.15Z" fill="#780500"/>
<path fill-rule="evenodd" clip-rule="evenodd" d="M56.8531 158.44L69.647 162.665L63.8508 154.19L53.209 153.067L51.1889 155.576L50.3703 152.5L40.2566 167.945L56.8531 158.44Z" fill="#FEE7D5"/>
<path fill-rule="evenodd" clip-rule="evenodd" d="M69.6471 162.665L64.9071 161.094L61.4083 156.592L54.0673 155.483L51.189 155.576L53.2091 153.068L63.8509 154.19L69.6471 162.665Z" fill="#F0BC95"/>
<path fill-rule="evenodd" clip-rule="evenodd" d="M29.7734 178.836L33.2327 184.724L40.5209 181.424L38.2631 178.995L29.7734 178.836Z" fill="#FEE7D5"/>
<path fill-rule="evenodd" clip-rule="evenodd" d="M34.2359 172.262L32.3611 176.539L37.3651 173.503L34.2359 172.262Z" fill="#FEE7D5"/>
<path fill-rule="evenodd" clip-rule="evenodd" d="M23.3435 178.15L20.2671 179.787L10.8664 186.612L10.5891 180.473L24.9807 158.744L28.4663 153.477L38.712 154.902L32.7046 151.668L37.0352 149.53L44.6271 154.216L38.4084 162.493L32.5065 158.427L27.3044 163.232L19.3561 176.407L28.902 171.338L23.3435 178.15Z" fill="#FEE7D5"/>
<path fill-rule="evenodd" clip-rule="evenodd" d="M19.356 176.407L28.9019 171.338L23.3566 178.163L24.5052 175.021L19.356 176.407ZM44.6402 154.216L38.4743 162.493L32.5724 158.427L27.3703 163.232L19.4484 176.434L27.0667 161.912L30.4071 157.041L38.8044 154.968L44.6402 154.216Z" fill="#F0BC95"/>
<path fill-rule="evenodd" clip-rule="evenodd" d="M52.3905 187.879L56.0346 185.028L54.2917 183.879L50.3704 187.206L49.5386 193.067L54.9651 197.833L56.1534 195.813L51.6907 192.499L52.3905 187.879Z" fill="#FEE7D5"/>
<path fill-rule="evenodd" clip-rule="evenodd" d="M55.3215 174.757L55.7573 179.179L57.0248 179.47L59.5466 174.533L61.8176 173.939L62.5437 174.414L65.3296 179.562L64.9467 187.1L63.2303 188.315L63.5472 188.988L66.1878 188.869L65.8974 187.245L66.8612 178.81L63.5208 172.75L63.5868 171.351L63.3887 167.84L61.8308 167.166L62.108 165.886L59.705 165.411L59.2825 166.203L61.8043 167.694L61.8968 171.734L61.4743 172.5L59.1769 173.014L54.6614 169.807L53.6711 170.651L55.3215 174.757Z" fill="#310401"/>
<path fill-rule="evenodd" clip-rule="evenodd" d="M55.4538 174.731L55.7574 179.179L54.3843 183.047L52.8923 176.988L53.6713 170.651L55.4538 174.731Z" fill="#F0BC95"/>
<path fill-rule="evenodd" clip-rule="evenodd" d="M122.751 96.3421L116.558 101.359L143.625 106.19L147.903 101.108L122.751 96.3421Z" fill="#780500"/>
</svg>
