<?xml version="1.0" encoding="UTF-8" standalone="no"?>
<svg
   id="Layer_1"
   data-name="Layer 1"
   viewBox="0 0 982.28998 560.13226"
   version="1.1"
   sodipodi:docname="triggermesh-notagline-stacked-color.svg"
   width="982.28998"
   height="560.13226"
   inkscape:version="1.1.1 (3bf5ae0d25, 2021-09-20)"
   xmlns:inkscape="http://www.inkscape.org/namespaces/inkscape"
   xmlns:sodipodi="http://sodipodi.sourceforge.net/DTD/sodipodi-0.dtd"
   xmlns="http://www.w3.org/2000/svg"
   xmlns:svg="http://www.w3.org/2000/svg">
  <sodipodi:namedview
     id="namedview33"
     pagecolor="#ffffff"
     bordercolor="#666666"
     borderopacity="1.0"
     inkscape:pageshadow="2"
     inkscape:pageopacity="0.0"
     inkscape:pagecheckerboard="0"
     showgrid="false"
     fit-margin-top="0"
     fit-margin-left="0"
     fit-margin-right="0"
     fit-margin-bottom="0"
     inkscape:zoom="1.058"
     inkscape:cx="491.02079"
     inkscape:cy="282.6087"
     inkscape:window-width="1920"
     inkscape:window-height="1010"
     inkscape:window-x="-6"
     inkscape:window-y="-6"
     inkscape:window-maximized="1"
     inkscape:current-layer="Layer_1" />
  <defs
     id="defs4">
    <style
       id="style2">.cls-1{fill:#0497dc;}</style>
  </defs>
  <g
     id="g863"
     transform="translate(-8.55,-17.04772)">
    <path
       class="cls-1"
       d="M 742.14,175.89 C 733.34,16.36 500.87,-51.22 400.14,107.45 334.95,79.45 256.78,122.14 255.65,193.1 126.22,206 112.77,398.22 303.51,398.22 h 6.38 A 63.38,63.38 0 0 1 311,353.1 L 291,353 c -91.75,-0.61 -116,-130.2 6.56,-118.18 -22.23,-71.46 55.13,-131 120.12,-77.17 58.38,-132.59 274,-136.61 283.77,52.81 120,8.23 116.22,132.32 28.4,144 H 607.44 a 45.43,45.43 0 0 1 4.56,43.75 h 117.85 c 133.25,-2.63 157.41,-195.1 12.29,-222.32 z"
       id="path6" />
    <path
       class="cls-1"
       d="m 508.07,263.77 1.2,-2 c 12.23,-21.29 60.85,-22.68 79.92,-5.75 6.23,7.66 11.62,13.37 20.27,17.27 23.89,10.74 52.2,0.59 63.23,-22.68 11.03,-23.27 0.61,-50.84 -23.29,-61.58 -23.9,-10.74 -50.56,0.21 -63.22,22.67 -14.18,25.12 -68.93,17.44 -79.56,6.3 a 58.16,58.16 0 0 0 -26.26,-18 46.1,46.1 0 0 0 -23.72,-2.49 c -24.61,3.87 -41.35,26.44 -37.38,50.41 0.67,4.08 0.36,4.29 5.36,15.94 5,11.65 -19.29,64.14 -44.62,68.69 -10,0.2 -18,0.93 -26.37,5.29 -23.23,12 -32,40.14 -19.67,62.76 12.33,22.62 41.21,31.2 64.44,19.16 23.23,-12.04 30.35,-39.36 19.6,-62.76 -12,-26.16 23.74,-67.42 44,-68.71 20.26,-1.29 55.73,45.42 43.56,67.25 -12.56,22.51 -7.62,50.29 14.56,64.07 22.18,13.78 51.71,7.39 65.88,-14.2 14.17,-21.59 7.62,-50.29 -14.57,-64.07 -8,-5 -15.9,-6.32 -25.87,-7.27 -24.93,-6.49 -50.51,-46.3 -38.72,-67.83 0.42,-0.82 0.84,-1.65 1.23,-2.47 z m 123.45,-52.56 c 11.44,0 20.71,9 20.71,20.16 0,11.16 -9.27,20.17 -20.71,20.17 -11.44,0 -20.7,-9 -20.7,-20.17 0,-11.17 9.27,-20.16 20.7,-20.16 z m -256,189.9 c -11.44,0 -20.7,-9 -20.7,-20.16 a 20.43,20.43 0 0 1 20.7,-20.17 c 11.43,0 20.7,9 20.7,20.17 0,11.17 -9.22,20.16 -20.68,20.16 z m 88.35,-146.55 a 15.1,15.1 0 1 1 15.49,-15.09 15.3,15.3 0 0 1 -15.47,15.09 z m 82.79,106.15 c 11.43,0 20.7,9 20.7,20.17 0,11.17 -9.25,20.12 -20.68,20.12 C 535.25,401 526,392 526,380.88 a 20.43,20.43 0 0 1 20.68,-20.17 z"
       id="path8" />
    <path
       d="M 39.64,493 H 8.55 v -9.62 H 81.13 V 493 H 50 v 82.58 H 39.64 Z"
       id="path10" />
    <path
       d="m 100.09,483.39 h 39.65 c 11.33,0 20.41,3.43 26.21,9.22 a 25.47,25.47 0 0 1 7.11,18.18 v 0.26 c 0,15.28 -10.54,24.24 -25,26.87 l 28.31,37.67 H 163.58 L 136.84,539.77 H 110.5 v 35.82 h -10.41 z m 38.73,47 c 13.83,0 23.7,-7.12 23.7,-19 v -0.26 c 0,-11.33 -8.69,-18.18 -23.57,-18.18 H 110.5 v 37.41 z"
       id="path12" />
    <path
       d="m 196.24,483.39 h 10.4 v 92.2 h -10.4 z"
       id="path14" />
    <path
       d="m 229.56,529.76 v -0.27 c 0,-25.28 18.57,-47.68 46.23,-47.68 15.54,0 25.16,4.48 34.38,12.25 l -6.72,7.94 c -7.11,-6.19 -15,-10.54 -28.05,-10.54 -20.42,0 -35,17.25 -35,37.8 v 0.26 c 0,22 14.09,38.33 36.48,38.33 a 43.4,43.4 0 0 0 26.61,-9.22 V 535.68 H 275.4 v -9.35 h 38.06 v 36.75 a 55.87,55.87 0 0 1 -37,14.1 c -28.99,0 -46.9,-21.08 -46.9,-47.42 z"
       id="path16" />
    <path
       d="m 332.82,529.76 v -0.27 c 0,-25.28 18.57,-47.68 46.23,-47.68 15.54,0 25.16,4.48 34.38,12.25 l -6.72,7.94 c -7.11,-6.19 -15,-10.54 -28,-10.54 -20.42,0 -35,17.25 -35,37.8 v 0.26 c 0,22 14.09,38.33 36.48,38.33 a 43.4,43.4 0 0 0 26.61,-9.22 v -22.95 h -28 v -9.35 h 38.06 v 36.75 a 55.87,55.87 0 0 1 -37,14.1 c -29.13,0 -47.04,-21.08 -47.04,-47.42 z"
       id="path18" />
    <path
       d="m 440.16,483.39 h 66.65 v 9.49 h -56.24 v 31.48 h 50.31 v 9.48 h -50.31 v 32.27 h 56.9 v 9.48 h -67.31 z"
       id="path20" />
    <path
       d="m 528.41,483.39 h 39.64 c 11.33,0 20.42,3.43 26.21,9.22 a 25.48,25.48 0 0 1 7.12,18.18 v 0.26 c 0,15.28 -10.54,24.24 -25,26.87 l 28.32,37.67 h -12.81 l -26.73,-35.82 h -26.35 v 35.82 h -10.4 z m 38.72,47 c 13.83,0 23.71,-7.12 23.71,-19 v -0.26 c 0,-11.33 -8.69,-18.18 -23.58,-18.18 h -28.45 v 37.41 z"
       id="path22" />
    <path
       d="m 618.76,483.39 h 27 l 22,35.7 22,-35.7 h 27 v 92.2 h -25.43 v -52.94 l -23.57,36.08 h -0.53 l -23.45,-36 v 52.81 h -25 z"
       id="path24" />
    <path
       d="m 733.08,483.39 h 74.16 V 505 h -48.87 v 14.09 h 44.26 v 20.15 h -44.26 v 14.62 h 49.52 v 21.73 h -74.81 z"
       id="path26" />
    <path
       d="m 814.08,561.9 14.23,-17 c 9.22,7.24 19.23,11.06 29.9,11.06 7,0 10.67,-2.37 10.67,-6.32 v -0.27 c 0,-4 -3,-5.92 -15.68,-9 -19.62,-4.48 -34.77,-10 -34.77,-28.85 v -0.26 c 0,-17.12 13.57,-29.51 35.69,-29.51 15.68,0 27.93,4.22 37.94,12.25 l -12.78,18.05 c -8.43,-6.06 -17.65,-9.09 -25.82,-9.09 -6.19,0 -9.22,2.5 -9.22,5.93 v 0.26 c 0,4.22 3.17,6.06 16.07,9 21.08,4.61 34.25,11.46 34.25,28.71 v 0.26 c 0,18.84 -14.88,30 -37.28,30 C 841,577.18 825.54,572 814.08,561.9 Z"
       id="path28" />
    <path
       d="m 906.94,483.39 h 25.55 v 34.51 h 32.8 v -34.51 h 25.55 v 92.2 h -25.55 v -35 h -32.8 v 35 h -25.55 z"
       id="path30" />
  </g>
</svg>
